<?xml version="1.0" encoding="UTF-8" standalone="no"?><!DOCTYPE svg PUBLIC "-//W3C//DTD SVG 1.1//EN" "http://www.w3.org/Graphics/SVG/1.1/DTD/svg11.dtd"><svg width="100%" height="100%" viewBox="0 0 57 57" version="1.1" xmlns="http://www.w3.org/2000/svg" xmlns:xlink="http://www.w3.org/1999/xlink" xml:space="preserve" xmlns:serif="http://www.serif.com/" style="fill-rule:evenodd;clip-rule:evenodd;"><ellipse id="cir_1" cx="28.985" cy="29.244" rx="24.985" ry="25.244" style="fill:#666;"/><circle id="cir_11" serif:id="cir_1" cx="28.5" cy="28.5" r="24.5" style="fill:#fafafa;"/><circle id="cir_2" cx="28.5" cy="28.5" r="22.05" style="fill:#fafafa;stroke:#000;stroke-width:2px;"/><path d="M23.028,12.806c-0.03,0.118 -0.104,0.445 -0.148,0.727c-0.149,0.861 -1.262,2.359 -3.176,4.289c-1.083,1.098 -1.81,1.929 -1.781,2.077c0.074,0.401 0.787,0.356 1.722,-0.119c0.92,-0.46 2.775,-1.706 2.938,-1.958c0.044,-0.089 0.401,-0.119 0.846,-0.06c0.43,0.045 1.335,-0.015 2.033,-0.133c0.697,-0.104 1.291,-0.178 1.321,-0.149c0.029,0.03 -0.52,0.683 -1.217,1.455l-1.291,1.395l-1.662,0.178c-2.004,0.207 -3.473,0.237 -4.527,0.074c-1.291,-0.193 -1.647,0.445 -0.727,1.306c0.431,0.415 0.549,0.697 0.906,2.181c0.608,2.612 1.246,3.443 2.047,2.716c0.223,-0.208 0.624,-0.327 1.292,-0.386l0.964,-0.089l-0.801,0.742c-1.054,0.979 -3.488,2.701 -5.031,3.547c-0.95,0.519 -1.202,0.727 -1.172,0.964c0.044,0.416 0.697,0.46 1.721,0.134c1.113,-0.341 3.562,-1.499 4.808,-2.256c1.009,-0.638 1.351,-0.727 1.722,-0.489c0.801,0.504 -4.215,4.526 -7.598,6.099c-1.173,0.549 -1.425,0.727 -1.395,0.964c0.059,0.49 1.009,0.46 2.641,-0.089c2.671,-0.89 5.298,-2.419 7.227,-4.199c0.49,-0.46 0.95,-0.831 1.024,-0.831c0.074,0 0.223,0.163 0.312,0.356c0.237,0.549 -0.416,1.439 -2.226,3.057c-2.345,2.092 -4.126,3.265 -7.717,5.06c-1.454,0.727 -1.796,1.039 -1.469,1.366c0.119,0.118 0.49,0.089 1.469,-0.104c3.695,-0.772 6.663,-2.241 9.542,-4.719c0.564,-0.475 1.039,-0.861 1.083,-0.861c0.193,0 0.253,1.142 0.104,2.226c-0.178,1.291 -0.593,2.448 -1.024,2.76c-0.356,0.282 -1.291,0.252 -2.448,-0.074c-0.891,-0.252 -1.024,-0.267 -1.217,-0.074c-0.297,0.296 -0.193,0.46 1.128,1.84c0.608,0.623 1.395,1.469 1.766,1.899c0.578,0.653 0.757,0.772 1.202,0.772c1.024,0 2.419,-1.514 2.968,-3.235c0.43,-1.321 0.564,-5.357 0.237,-6.901c-0.119,-0.549 -0.163,-0.994 -0.104,-0.964c0.075,0.029 0.846,0.875 1.722,1.899c2.864,3.324 4.214,4.719 4.867,5.046c0.816,0.386 1.9,0.386 3.844,-0.015c1.781,-0.371 2.567,-0.653 2.701,-0.994c0.133,-0.371 -0.193,-0.579 -2.004,-1.262c-4.392,-1.677 -5.891,-2.597 -9.423,-5.787l-0.89,-0.802l1.632,-0.786c0.905,-0.431 2.256,-1.069 3.012,-1.425c0.742,-0.356 1.366,-0.712 1.366,-0.786c0,-0.342 -0.891,-1.128 -1.707,-1.514c-1.321,-0.638 -1.899,-0.564 -2.077,0.237c-0.134,0.52 -1.084,1.559 -2.419,2.627l-0.92,0.742l-0.713,-0.356c-0.386,-0.193 -1.039,-0.698 -1.454,-1.113c-0.416,-0.416 -1.054,-0.905 -1.41,-1.098l-0.653,-0.327l0.623,-0.297c0.698,-0.341 0.861,-0.593 0.639,-0.979c-0.149,-0.297 0.029,-0.326 2.997,-0.549c1.276,-0.104 1.306,-0.104 1.618,0.297c0.341,0.43 0.875,0.504 1.439,0.193c0.193,-0.119 0.787,-1.024 1.38,-2.108c0.579,-1.068 1.247,-2.137 1.499,-2.404c0.594,-0.608 0.49,-1.068 -0.371,-1.647c-0.861,-0.608 -2.374,-1.217 -2.953,-1.217c-0.267,0 -1.321,0.208 -2.345,0.445c-1.009,0.238 -1.855,0.416 -1.884,0.386c-0.134,-0.118 2.819,-2.404 3.799,-2.938c0.534,-0.297 0.623,-0.816 0.193,-1.202c-0.416,-0.386 -1.855,-0.994 -2.345,-0.994c-0.252,0 -1.143,0.252 -2.004,0.578c-0.845,0.312 -1.736,0.624 -1.973,0.668c-0.386,0.089 -0.416,0.074 -0.253,-0.119c0.104,-0.133 0.431,-0.371 0.698,-0.549c0.712,-0.43 0.861,-0.771 0.594,-1.291c-0.386,-0.742 -2.939,-1.602 -3.117,-1.053Zm8.325,9.186c-0.044,0.4 -0.222,1.038 -0.385,1.409c-0.268,0.609 -0.312,0.653 -0.713,0.535c-0.237,-0.075 -1.113,-0.06 -1.944,0.029c-0.831,0.075 -1.558,0.119 -1.588,0.075c-0.029,-0.03 -0.015,-0.594 0.045,-1.247l0.104,-1.172l1.335,-0.164c0.742,-0.089 1.766,-0.178 2.286,-0.193l0.949,-0.014l-0.089,0.742Zm-6.856,0.148c0.045,0.074 0.045,0.638 -0.015,1.247l-0.103,1.098l-1.054,0.089c-0.579,0.059 -1.395,0.133 -1.811,0.178l-0.742,0.089l-0.192,-1.217c-0.104,-0.668 -0.164,-1.232 -0.134,-1.261c0.03,-0.03 2.389,-0.253 3.636,-0.342c0.178,-0.015 0.371,0.03 0.415,0.119Z" style="fill-rule:nonzero;"/></svg>