<?xml version="1.0" encoding="UTF-8" standalone="no"?><!DOCTYPE svg PUBLIC "-//W3C//DTD SVG 1.1//EN" "http://www.w3.org/Graphics/SVG/1.1/DTD/svg11.dtd"><svg width="100%" height="100%" viewBox="0 0 57 57" version="1.1" xmlns="http://www.w3.org/2000/svg" xmlns:xlink="http://www.w3.org/1999/xlink" xml:space="preserve" xmlns:serif="http://www.serif.com/" style="fill-rule:evenodd;clip-rule:evenodd;"><ellipse id="cir_1" cx="28.985" cy="29.244" rx="24.985" ry="25.244" style="fill:#666;"/><circle id="cir_11" serif:id="cir_1" cx="28.5" cy="28.5" r="24.5" style="fill:#fafafa;"/><circle id="cir_2" cx="28.5" cy="28.5" r="22.05" style="fill:#fafafa;stroke:#000;stroke-width:2px;"/><g><path d="M25.479,12.166c-0.104,0.104 -0.178,0.268 -0.178,0.371c0,0.238 1.217,2.449 1.736,3.132c0.208,0.267 0.342,0.519 0.327,0.549c-0.074,0.059 -4.526,0.489 -7.034,0.668c-2.375,0.178 -2.85,0.356 -2.568,0.964c0.564,1.232 2.197,1.306 11.026,0.505c6.085,-0.535 9.364,-1.054 9.839,-1.529c0.386,-0.386 0.015,-0.935 -0.979,-1.395c-1.039,-0.475 -1.618,-0.489 -3.903,-0.059c-0.95,0.163 -2.167,0.356 -2.701,0.415c-0.935,0.089 -0.979,0.089 -0.89,-0.207c0.044,-0.178 0,-0.653 -0.104,-1.054c-0.223,-0.95 -0.772,-1.439 -2.271,-2.078c-1.172,-0.474 -2.003,-0.578 -2.3,-0.282Z" style="fill-rule:nonzero;"/><path d="M21.917,19.29c-0.074,0.104 -0.192,0.564 -0.252,1.009c-0.222,1.692 -0.935,2.923 -3.22,5.594c-1.336,1.559 -1.529,2.004 -0.905,2.093c0.578,0.089 2.374,-0.965 3.502,-2.033l1.068,-1.024l1.188,1.246c1.098,1.158 1.231,1.247 1.78,1.247c0.683,0 0.846,-0.089 1.099,-0.549c0.237,-0.46 0.192,-1.069 -0.134,-1.796c-0.252,-0.549 -0.416,-0.697 -1.217,-1.053c-0.519,-0.238 -1.054,-0.46 -1.202,-0.52c-0.252,-0.074 -0.237,-0.133 0.163,-0.653c0.253,-0.297 0.653,-0.742 0.906,-0.979c0.86,-0.816 0.474,-1.618 -1.173,-2.375c-0.905,-0.43 -1.365,-0.474 -1.603,-0.207Z" style="fill-rule:nonzero;"/><path d="M32.513,18.488c-0.029,0.06 -0.133,0.624 -0.222,1.262c-0.208,1.439 -0.817,3.027 -1.93,4.927c-0.474,0.816 -0.831,1.558 -0.801,1.662c0.252,0.667 1.796,-0.06 2.998,-1.395l0.697,-0.787l1.41,1.306c1.662,1.543 2.048,1.811 2.656,1.811c1.128,0 1.677,-1.737 0.846,-2.657c-0.43,-0.46 -2.152,-1.291 -3.161,-1.513c-0.445,-0.104 -0.801,-0.223 -0.801,-0.282c0,-0.06 0.371,-0.609 0.816,-1.232c0.445,-0.609 0.816,-1.247 0.816,-1.41c0,-0.43 -0.638,-1.039 -1.513,-1.439c-0.772,-0.357 -1.662,-0.49 -1.811,-0.253Z" style="fill-rule:nonzero;"/><path d="M26.711,26.146c-0.223,0.326 -0.223,0.445 -0.015,1.246c0.133,0.49 0.237,1.291 0.237,1.781l0,0.876l-1.513,0.104c-0.846,0.059 -2.33,0.207 -3.31,0.326c-0.979,0.119 -3.22,0.282 -4.971,0.356c-2.983,0.134 -3.205,0.163 -3.458,0.46c-0.222,0.282 -0.237,0.371 -0.059,0.638c0.252,0.386 1.454,1.054 2.359,1.291c0.594,0.164 0.95,0.134 2.879,-0.207c2.36,-0.431 4.868,-0.772 6.827,-0.92l1.217,-0.104l0.059,5.847c0.059,5.09 0.104,5.906 0.327,6.455c0.638,1.543 1.498,0.534 2.107,-2.493c0.178,-0.92 0.267,-2.374 0.311,-5.595c0.045,-2.374 0.089,-4.348 0.104,-4.348c0,-0.015 2.968,-0.074 6.574,-0.119c6.515,-0.089 6.575,-0.089 6.901,-0.415c0.267,-0.282 0.297,-0.386 0.148,-0.698c-0.252,-0.564 -1.216,-1.187 -2.389,-1.573l-1.039,-0.326l-2.122,0.312c-2.359,0.341 -6.336,0.756 -7.331,0.756c-0.757,0 -0.786,-0.104 -0.43,-1.276c0.326,-1.068 0.282,-1.335 -0.267,-1.751c-0.549,-0.416 -2.018,-0.979 -2.567,-0.979c-0.208,0 -0.446,0.148 -0.579,0.356Z" style="fill-rule:nonzero;"/></g></svg>