<?xml version="1.0" encoding="UTF-8" standalone="no"?><!DOCTYPE svg PUBLIC "-//W3C//DTD SVG 1.1//EN" "http://www.w3.org/Graphics/SVG/1.1/DTD/svg11.dtd"><svg width="100%" height="100%" viewBox="0 0 57 57" version="1.1" xmlns="http://www.w3.org/2000/svg" xmlns:xlink="http://www.w3.org/1999/xlink" xml:space="preserve" xmlns:serif="http://www.serif.com/" style="fill-rule:evenodd;clip-rule:evenodd;"><ellipse id="cir_1" cx="28.985" cy="29.244" rx="24.985" ry="25.244" style="fill:#666;"/><circle id="cir_11" serif:id="cir_1" cx="28.5" cy="28.5" r="24.5" style="fill:#fafafa;"/><circle id="cir_2" cx="28.5" cy="28.5" r="22.05" style="fill:#fafafa;stroke:#c00;stroke-width:2px;"/><g><path d="M21.976,14.723c-0.075,0.103 -0.193,0.593 -0.238,1.083c-0.059,0.49 -0.208,1.246 -0.326,1.692c-0.267,0.92 -1.395,3.235 -2.404,4.897c-1.395,2.315 -4.17,5.802 -5.877,7.39c-0.46,0.43 -0.831,0.846 -0.831,0.905c0,0.297 0.445,0.505 0.89,0.401c1.01,-0.223 4.022,-2.508 5.64,-4.274l0.653,-0.727l0.133,0.43c0.134,0.49 0,5.803 -0.208,8.058c-0.089,0.861 -0.311,2.271 -0.504,3.147l-0.371,1.573l0.297,0.949c0.474,1.484 0.89,2.108 1.454,2.167c0.401,0.044 0.519,-0.03 0.772,-0.445c0.593,-0.98 0.712,-2.271 0.801,-8.103c0.044,-3.042 0.163,-6.129 0.267,-6.871l0.178,-1.321l-0.593,-0.86l-0.609,-0.861l0.579,-0.89c0.312,-0.475 1.009,-1.648 1.528,-2.597c0.535,-0.95 1.277,-2.063 1.633,-2.494c0.846,-0.994 0.846,-1.32 0.029,-2.136c-1.023,-1.039 -2.493,-1.588 -2.893,-1.113Z" style="fill:#c00;fill-rule:nonzero;"/><path d="M30.553,15.776c-0.193,0.104 -0.43,0.371 -0.504,0.594c-0.134,0.356 -0.089,0.549 0.267,1.157c0.534,0.95 0.816,3.265 0.831,6.619l0,2.389l-0.401,0.089c-0.237,0.045 -1.914,0.282 -3.754,0.534c-1.841,0.238 -3.577,0.52 -3.874,0.594c-1.083,0.297 -0.831,0.935 0.683,1.647c1.113,0.535 1.499,0.535 4.452,-0.015c1.306,-0.237 2.493,-0.445 2.642,-0.445c0.237,0 0.252,0.267 0.252,3.636c0,2.092 -0.06,3.636 -0.134,3.636c-0.282,0 -5.594,0.757 -5.832,0.831c-0.816,0.252 -0.608,0.92 0.445,1.454c1.395,0.713 1.722,0.727 4.378,0.327c3.027,-0.475 4.69,-0.638 8.043,-0.831c3.25,-0.193 3.428,-0.223 3.74,-0.698c0.252,-0.386 0.252,-0.386 -0.519,-1.098c-1.38,-1.261 -2.093,-1.365 -5.521,-0.742c-0.935,0.163 -1.706,0.312 -1.721,0.312c-0.03,0 0.133,-7.213 0.178,-7.257c0.104,-0.104 3.606,-0.445 6.515,-0.609c3.279,-0.207 3.932,-0.356 3.932,-0.949c0,-0.713 -1.706,-1.87 -2.983,-1.989c-0.549,-0.044 -3.799,0.445 -7.167,1.113l-0.431,0.074l0.104,-1.899c0.149,-2.671 0.49,-5.016 0.846,-5.684c0.223,-0.43 0.252,-0.653 0.148,-0.92c-0.282,-0.727 -1.409,-1.439 -2.938,-1.84c-1.024,-0.267 -1.202,-0.267 -1.677,-0.03Z" style="fill:#c00;fill-rule:nonzero;"/></g></svg>