<?xml version="1.0" encoding="UTF-8" standalone="no"?><!DOCTYPE svg PUBLIC "-//W3C//DTD SVG 1.1//EN" "http://www.w3.org/Graphics/SVG/1.1/DTD/svg11.dtd"><svg width="100%" height="100%" viewBox="0 0 57 57" version="1.1" xmlns="http://www.w3.org/2000/svg" xmlns:xlink="http://www.w3.org/1999/xlink" xml:space="preserve" xmlns:serif="http://www.serif.com/" style="fill-rule:evenodd;clip-rule:evenodd;"><ellipse id="cir_1" cx="28.985" cy="29.244" rx="24.985" ry="25.244" style="fill:#666;"/><circle id="cir_11" serif:id="cir_1" cx="28.5" cy="28.5" r="24.5" style="fill:#fafafa;"/><circle id="cir_2" cx="28.5" cy="28.5" r="22.05" style="fill:#fafafa;stroke:#c00;stroke-width:2px;"/><g><path d="M22.197,13.869c-0.237,0.356 -0.237,0.431 0.06,1.291c0.415,1.202 0.623,2.983 0.623,5.387l0,1.944l-1.069,0.178c-0.593,0.104 -2.003,0.312 -3.146,0.46c-1.127,0.149 -2.122,0.342 -2.211,0.431c-0.267,0.267 0.074,0.92 0.638,1.231c0.475,0.268 0.742,0.282 2.79,0.223c1.558,-0.059 2.256,-0.03 2.256,0.074c0,0.282 -1.172,2.345 -2.345,4.126c-0.92,1.395 -1.588,2.166 -3.636,4.185c-2.493,2.463 -2.819,2.938 -2.018,2.938c0.46,0 2.478,-0.905 3.502,-1.573c1.217,-0.801 3.087,-2.716 4.126,-4.274l0.89,-1.306l0.045,0.594c0.074,0.935 -0.52,7.375 -0.802,8.711c-0.148,0.697 -0.207,1.484 -0.163,1.959c0.089,0.875 0.727,2.419 1.173,2.819c0.252,0.238 0.326,0.238 0.682,0.045c0.238,-0.134 0.579,-0.594 0.846,-1.113l0.445,-0.891l0.045,-6.054c0.03,-3.325 0.089,-6.04 0.148,-6.04c0.06,0 0.445,0.415 0.846,0.905c1.647,2.003 2.953,2.33 3.339,0.846c0.267,-0.994 -0.119,-1.781 -1.202,-2.493c-0.475,-0.312 -1.38,-0.742 -1.988,-0.965l-1.128,-0.415l0.104,-1.277c0.059,-0.697 0.118,-1.306 0.148,-1.335c0.015,-0.03 0.816,-0.193 1.751,-0.386c2.553,-0.505 3.324,-0.994 2.686,-1.707c-0.312,-0.341 -1.543,-0.875 -2.092,-0.905c-0.238,-0.015 -0.817,0.089 -1.291,0.223c-0.475,0.148 -0.906,0.237 -0.95,0.193c-0.119,-0.134 0.267,-4.556 0.49,-5.402c0.178,-0.698 0.178,-0.861 -0.015,-1.232c-0.253,-0.504 -0.802,-0.905 -1.885,-1.41c-1.009,-0.475 -1.38,-0.475 -1.692,0.015Z" style="fill:#c00;fill-rule:nonzero;"/><path d="M38.492,18.974c-1.573,0.49 -4.868,1.187 -5.743,1.202c-0.327,0 -0.95,-0.03 -1.366,-0.089c-1.231,-0.178 -1.513,0.252 -0.935,1.38c0.549,1.039 0.638,2.197 0.535,7.005c-0.06,2.493 -0.164,5.09 -0.238,5.787c-0.312,2.864 -0.341,3.651 -0.148,4.245c0.504,1.513 1.395,2.226 1.959,1.543c0.148,-0.178 0.267,-0.49 0.267,-0.683c0,-0.193 0.089,-0.356 0.193,-0.356c0.089,0 1.35,-0.104 2.775,-0.222c1.424,-0.119 2.745,-0.223 2.923,-0.223c0.267,0 0.445,0.223 0.876,1.068c0.549,1.084 0.95,1.603 1.246,1.603c0.089,0 0.46,-0.208 0.817,-0.445c0.474,-0.327 0.786,-0.712 1.127,-1.425c0.594,-1.202 0.609,-1.721 0.149,-5.594c-0.297,-2.479 -0.327,-3.295 -0.267,-7.198c0.044,-3.101 0.118,-4.6 0.267,-5.031c0.297,-0.964 0.089,-1.32 -1.202,-2.151c-0.609,-0.386 -1.277,-0.728 -1.484,-0.772c-0.208,-0.045 -0.98,0.119 -1.751,0.356Zm1.113,2.404c0.089,0.104 0.193,1.009 0.252,2.018l0.089,1.826l-0.935,-0.104c-0.712,-0.059 -1.247,0 -2.404,0.282c-2.003,0.504 -3.191,0.742 -3.295,0.638c-0.044,-0.045 -0.029,-0.979 0.03,-2.078c0.089,-1.677 0.149,-2.018 0.356,-2.077c0.282,-0.089 2.553,-0.49 3.206,-0.579c1.083,-0.148 2.567,-0.104 2.701,0.074Zm0.341,7.539c0,0.979 -0.03,1.781 -0.074,1.781c-0.03,0 -0.386,-0.074 -0.787,-0.164c-0.638,-0.133 -1.039,-0.089 -2.953,0.297c-3.161,0.653 -2.864,0.787 -2.864,-1.231l0,-1.677l1.454,-0.089c0.787,-0.06 2.108,-0.223 2.924,-0.386c0.816,-0.163 1.662,-0.297 1.899,-0.297l0.401,-0.015l0,1.781Zm-0.045,4.778c-0.059,0.683 -0.103,1.544 -0.103,1.93l0,0.712l-0.846,0c-0.475,0 -1.588,0.089 -2.493,0.208c-0.891,0.118 -2.034,0.252 -2.523,0.296l-0.891,0.09l0.089,-3.71l0.772,-0.015c0.43,0 1.811,-0.164 3.072,-0.356c3.369,-0.505 3.027,-0.594 2.923,0.845Z" style="fill:#c00;fill-rule:nonzero;"/></g></svg>