<?xml version="1.0" encoding="UTF-8" standalone="no"?><!DOCTYPE svg PUBLIC "-//W3C//DTD SVG 1.1//EN" "http://www.w3.org/Graphics/SVG/1.1/DTD/svg11.dtd"><svg width="100%" height="100%" viewBox="0 0 57 57" version="1.1" xmlns="http://www.w3.org/2000/svg" xmlns:xlink="http://www.w3.org/1999/xlink" xml:space="preserve" xmlns:serif="http://www.serif.com/" style="fill-rule:evenodd;clip-rule:evenodd;"><ellipse id="cir_1" cx="28.985" cy="29.244" rx="24.985" ry="25.244" style="fill:#666;"/><circle id="cir_11" serif:id="cir_1" cx="28.5" cy="28.5" r="24.5" style="fill:#fafafa;"/><circle id="cir_2" cx="28.5" cy="28.5" r="22.05" style="fill:#fafafa;stroke:#c00;stroke-width:2px;"/><g><path d="M18.041,14.752c-0.252,0.252 -0.222,0.727 0.104,1.469c0.371,0.875 0.608,3.443 0.608,6.752c0,5.565 -0.786,9.958 -2.315,13.015c-0.697,1.365 -1.187,2.077 -2.626,3.784c-1.143,1.35 -1.291,1.707 -0.787,1.899c0.475,0.179 2.805,-1.335 4.037,-2.626c0.994,-1.069 1.736,-2.211 2.359,-3.636c0.282,-0.638 0.564,-1.143 0.624,-1.113c0.074,0.044 0.534,0.608 1.024,1.276c1.187,1.558 1.765,2.048 2.27,1.929c0.519,-0.118 0.861,-0.549 0.979,-1.261c0.208,-1.217 -0.816,-2.33 -2.893,-3.176c-0.92,-0.371 -1.054,-0.475 -0.98,-0.742c0.208,-0.742 0.668,-3.858 0.772,-5.179c0.089,-1.217 0.148,-1.439 0.371,-1.514c0.163,-0.059 0.831,-0.489 1.484,-0.979c0.668,-0.49 1.543,-1.098 1.974,-1.35c0.935,-0.564 1.127,-0.802 1.127,-1.366c0,-0.801 -2.077,-2.419 -2.656,-2.063c-0.119,0.075 -0.475,0.772 -0.757,1.544c-0.297,0.772 -0.697,1.662 -0.905,1.988l-0.356,0.594l-0.045,-2.226c-0.044,-2.271 0.134,-4.007 0.505,-4.897c0.252,-0.623 0.089,-1.054 -0.579,-1.514c-1.009,-0.683 -2.923,-1.024 -3.339,-0.608Z" style="fill:#c00;fill-rule:nonzero;"/><path d="M13.278,24.427c-0.149,0.178 -0.149,0.342 -0.015,0.787c0.475,1.454 1.929,3.814 2.537,4.14c0.831,0.416 1.826,-0.133 1.989,-1.128c0.133,-0.786 -0.149,-1.706 -0.742,-2.359c-1.009,-1.113 -3.309,-2.004 -3.769,-1.44Z" style="fill:#c00;fill-rule:nonzero;"/><path d="M29.839,13.891c-0.119,0.134 -0.237,0.683 -0.297,1.425c-0.178,2.196 -2.152,7.316 -3.873,10.002c-0.297,0.46 -0.534,0.935 -0.534,1.068c0,0.327 0.386,0.416 0.89,0.208c0.46,-0.193 2.093,-1.692 2.642,-2.419c0.296,-0.401 0.311,-0.401 0.994,-0.223c0.653,0.179 0.772,0.164 1.825,-0.237c2.968,-1.083 4.986,-1.499 5.461,-1.113c0.208,0.178 0.223,0.416 0.134,1.766c-0.193,2.909 -0.905,6.426 -1.454,7.183c-0.193,0.267 -0.238,0.267 -1.336,-0.045c-0.638,-0.178 -1.217,-0.312 -1.291,-0.312c-0.401,0 -0.267,0.505 0.326,1.291c0.357,0.475 0.817,1.128 1.009,1.455c0.475,0.816 1.039,1.41 1.336,1.41c0.312,0 1.321,-0.653 1.677,-1.084c0.979,-1.202 1.514,-2.983 2.107,-7.153c0.416,-2.938 0.564,-3.591 0.965,-4.333c0.148,-0.282 0.222,-0.638 0.178,-0.816c-0.119,-0.475 -1.083,-1.336 -1.974,-1.796l-0.801,-0.386l-1.484,0.505c-1.44,0.49 -5.862,1.603 -5.966,1.499c-0.029,-0.03 0.579,-1.351 1.365,-2.938c0.772,-1.588 1.41,-2.968 1.41,-3.058c0,-0.356 -1.128,-1.424 -1.855,-1.751c-0.86,-0.415 -1.157,-0.43 -1.454,-0.148Z" style="fill:#c00;fill-rule:nonzero;"/><path d="M29.661,26.579c-1.247,0.609 -2.493,0.861 -3.102,0.638c-0.267,-0.104 -0.697,-0.178 -0.949,-0.178c-0.668,0 -0.817,0.371 -0.55,1.276c0.179,0.594 0.193,1.544 0.119,5.402c-0.089,5.165 -0.059,5.506 0.742,6.559c1.633,2.152 4.912,3.206 9.379,3.043c3.146,-0.119 5.387,-0.668 7.212,-1.737c0.995,-0.593 1.766,-1.469 1.766,-2.033c0,-0.178 -0.237,-0.801 -0.519,-1.395c-0.297,-0.623 -0.638,-1.736 -0.816,-2.582c-0.312,-1.513 -0.638,-2.092 -1.128,-1.899c-0.238,0.089 -0.267,0.148 -0.653,2.315c-0.163,0.875 -0.401,1.84 -0.534,2.137c-0.49,1.024 -2.033,1.78 -4.363,2.137c-1.737,0.267 -5.758,0.089 -7.005,-0.297c-1.677,-0.534 -2.048,-1.247 -2.048,-3.962l0,-1.633l1.751,-0.326c0.95,-0.178 2.078,-0.371 2.479,-0.446c0.593,-0.089 0.757,-0.178 0.786,-0.415c0.03,-0.163 -0.089,-0.416 -0.237,-0.549c-0.282,-0.267 -0.282,-0.282 0.059,-1.454c0.193,-0.653 0.505,-1.47 0.712,-1.811c0.921,-1.528 0.921,-1.543 0.579,-2.003c-0.356,-0.475 -1.454,-1.039 -2.226,-1.128c-0.415,-0.06 -0.801,0.03 -1.454,0.341Zm0.326,2.805c-0.044,0.46 -0.163,1.187 -0.252,1.603l-0.163,0.742l-1.024,0.356c-0.564,0.193 -1.083,0.311 -1.143,0.252c-0.119,-0.119 0.149,-2.078 0.401,-2.938c0.133,-0.46 0.237,-0.564 0.786,-0.683c0.342,-0.089 0.817,-0.163 1.054,-0.178l0.43,-0.015l-0.089,0.861Z" style="fill:#c00;fill-rule:nonzero;"/></g></svg>