<?xml version="1.0" encoding="UTF-8" standalone="no"?><!DOCTYPE svg PUBLIC "-//W3C//DTD SVG 1.1//EN" "http://www.w3.org/Graphics/SVG/1.1/DTD/svg11.dtd"><svg width="100%" height="100%" viewBox="0 0 57 57" version="1.1" xmlns="http://www.w3.org/2000/svg" xmlns:xlink="http://www.w3.org/1999/xlink" xml:space="preserve" xmlns:serif="http://www.serif.com/" style="fill-rule:evenodd;clip-rule:evenodd;"><ellipse id="cir_1" cx="28.985" cy="29.244" rx="24.985" ry="25.244" style="fill:#666;"/><circle id="cir_11" serif:id="cir_1" cx="28.5" cy="28.5" r="24.5" style="fill:#fafafa;"/><circle id="cir_2" cx="28.5" cy="28.5" r="22.05" style="fill:#fafafa;stroke:#c00;stroke-width:2px;"/><g><path d="M22.06,14.349c-0.222,0.222 -0.311,0.504 -0.311,0.949c0,2.271 -2.582,7.198 -5.832,11.13c-0.698,0.831 -1.573,1.811 -1.944,2.182c-1.009,0.964 -0.861,1.558 0.296,1.187c0.757,-0.252 3.236,-2.167 4.334,-3.324c0.504,-0.534 0.949,-0.98 0.994,-0.98c0.134,0 0.074,5.684 -0.089,7.406c-0.089,0.934 -0.327,2.344 -0.549,3.116c-0.475,1.766 -0.475,2.345 0.044,3.576c0.49,1.188 0.742,1.484 1.262,1.484c0.504,0 0.668,-0.193 1.024,-1.202c0.356,-1.068 0.445,-2.137 0.608,-7.85c0.074,-2.656 0.208,-5.179 0.312,-5.61c0.208,-0.979 0.133,-1.246 -0.594,-2.196l-0.579,-0.757l0.742,-1.157c0.401,-0.638 1.203,-1.989 1.781,-3.028c0.579,-1.024 1.202,-2.062 1.395,-2.285c0.193,-0.237 0.356,-0.564 0.356,-0.727c0,-0.386 -1.187,-1.558 -1.84,-1.825c-0.95,-0.386 -1.098,-0.401 -1.41,-0.089Z" style="fill:#c00;fill-rule:nonzero;"/><path d="M37.108,14.067c-1.35,0.371 -5.001,0.964 -8.132,1.32c-1.365,0.149 -2.582,0.356 -2.701,0.46c-0.312,0.253 -0.282,0.683 0.089,1.455c0.312,0.623 0.312,0.771 0.237,5.194c-0.059,3.131 -0.148,4.927 -0.311,5.743c-0.119,0.653 -0.193,1.35 -0.134,1.558c0.134,0.623 0.653,1.439 1.024,1.632c0.282,0.164 0.416,0.134 0.891,-0.133c1.291,-0.772 5.238,-1.455 9.141,-1.603c1.9,-0.074 2.538,-0.044 2.716,0.104c0.163,0.134 0.222,0.505 0.222,1.558c0,1.544 -0.222,4.037 -0.46,5.268c-0.267,1.336 -1.157,2.82 -1.691,2.82c-0.119,0 -0.787,-0.312 -1.499,-0.683c-1.262,-0.667 -1.618,-0.727 -1.781,-0.296c-0.104,0.252 2.434,3.932 3.012,4.392c0.535,0.416 0.935,0.371 1.766,-0.178c1.915,-1.291 2.805,-3.621 3.176,-8.34c0.193,-2.374 0.327,-3.131 0.742,-4.036c0.163,-0.342 0.297,-0.772 0.297,-0.935c0,-0.386 -0.757,-1.01 -1.914,-1.544c-1.084,-0.504 -1.306,-0.534 -3.28,-0.282c-0.772,0.089 -1.9,0.208 -2.478,0.267l-1.084,0.089l0,-1.113c0,-0.623 0.075,-1.172 0.149,-1.216c0.089,-0.06 0.935,-0.193 1.899,-0.297c0.965,-0.119 1.87,-0.253 2.033,-0.312c0.46,-0.163 0.817,-0.519 0.817,-0.816c0,-0.638 -2.241,-1.276 -3.592,-1.024c-1.246,0.237 -1.217,0.267 -1.098,-0.772c0.06,-0.519 0.119,-0.949 0.134,-0.964c0.015,-0.015 0.801,-0.119 1.736,-0.253c1.87,-0.237 2.167,-0.311 2.567,-0.653c0.638,-0.549 0.119,-1.038 -1.528,-1.424c-0.713,-0.163 -1.113,-0.178 -1.796,-0.06c-0.49,0.089 -0.92,0.134 -0.935,0.104c-0.029,-0.029 0,-0.489 0.089,-1.024c0.074,-0.534 0.104,-1.068 0.074,-1.187c-0.044,-0.193 0.297,-0.297 1.885,-0.549c2.241,-0.371 3.042,-0.608 3.265,-0.979c0.237,-0.371 -0.015,-0.713 -0.831,-1.113c-0.935,-0.475 -1.514,-0.505 -2.716,-0.178Zm-4.852,3.22c0.074,0.148 0.178,0.742 0.222,1.335c0.089,1.069 0.089,1.069 -0.312,1.143c-0.86,0.178 -2.344,0.386 -2.76,0.386l-0.43,0l0.089,-1.35c0.044,-0.742 0.133,-1.395 0.178,-1.455c0.089,-0.074 0.876,-0.163 2.552,-0.282c0.179,-0.015 0.386,0.089 0.461,0.223Zm0.296,5.491l-0.044,1.009l-0.742,0.104c-0.401,0.059 -1.232,0.163 -1.811,0.237l-1.083,0.119l0,-2.167l0.935,-0.015c0.504,0 1.261,-0.059 1.662,-0.133c0.416,-0.06 0.831,-0.119 0.935,-0.134c0.148,-0.015 0.178,0.238 0.148,0.98Zm0.03,4.244l0,1.232l-1.588,0.252c-0.89,0.148 -1.751,0.297 -1.929,0.341c-0.341,0.089 -0.341,0.074 -0.341,-1.335l0,-1.425l1.009,-0.015c0.831,-0.015 2.686,-0.178 2.819,-0.267c0.015,0 0.03,0.534 0.03,1.217Z" style="fill:#c00;fill-rule:nonzero;"/><path d="M27.433,32.72c-0.119,0.282 0.074,1.01 0.697,2.746c0.579,1.588 0.905,2.048 1.499,2.048c0.727,0 1.024,-0.445 1.024,-1.544c0,-1.587 -0.356,-2.27 -1.618,-3.071c-0.742,-0.49 -1.454,-0.564 -1.602,-0.179Z" style="fill:#c00;fill-rule:nonzero;"/><path d="M30.653,31.875c-0.134,0.252 -0.015,0.578 0.668,1.929c1.276,2.493 1.973,3.012 2.819,2.152c0.431,-0.416 0.49,-1.277 0.163,-2.197c-0.282,-0.786 -0.549,-1.039 -1.721,-1.647c-1.143,-0.608 -1.692,-0.668 -1.929,-0.237Z" style="fill:#c00;fill-rule:nonzero;"/><path d="M25.043,31.83c-0.074,0.148 -0.178,0.46 -0.237,0.698c-0.06,0.222 -0.445,1.157 -0.861,2.077c-0.668,1.44 -0.772,1.766 -0.772,2.627c-0.014,0.786 0.045,1.053 0.282,1.321c1.039,1.157 2.048,0.356 2.746,-2.152c0.475,-1.662 0.46,-3.042 -0.015,-4.007c-0.386,-0.801 -0.89,-1.054 -1.143,-0.564Z" style="fill:#c00;fill-rule:nonzero;"/><path d="M34.392,30.717c-0.371,0.371 -0.103,1.009 1.306,3.102c0.713,1.024 1.099,1.32 1.737,1.32c0.831,0 1.202,-0.653 1.024,-1.855c-0.149,-0.92 -0.698,-1.513 -1.944,-2.092c-1.291,-0.594 -1.87,-0.727 -2.123,-0.475Z" style="fill:#c00;fill-rule:nonzero;"/></g></svg>