<?xml version="1.0" encoding="UTF-8" standalone="no"?><!DOCTYPE svg PUBLIC "-//W3C//DTD SVG 1.1//EN" "http://www.w3.org/Graphics/SVG/1.1/DTD/svg11.dtd"><svg width="100%" height="100%" viewBox="0 0 57 57" version="1.1" xmlns="http://www.w3.org/2000/svg" xmlns:xlink="http://www.w3.org/1999/xlink" xml:space="preserve" xmlns:serif="http://www.serif.com/" style="fill-rule:evenodd;clip-rule:evenodd;"><ellipse id="cir_1" cx="28.985" cy="29.244" rx="24.985" ry="25.244" style="fill:#666;"/><circle id="cir_11" serif:id="cir_1" cx="28.5" cy="28.5" r="24.5" style="fill:#fafafa;"/><circle id="cir_2" cx="28.5" cy="28.5" r="22.05" style="fill:#fafafa;stroke:#c00;stroke-width:2px;"/><g><path d="M31.097,13.685c-0.119,0.044 -0.594,0.371 -1.039,0.727c-1.217,0.95 -2.998,1.988 -4.972,2.864l-1.751,0.801l-0.608,-0.296c-0.341,-0.179 -0.994,-0.386 -1.469,-0.49c-1.529,-0.312 -2.093,0.341 -1.469,1.677c0.192,0.4 0.638,2.701 1.276,6.515c0.534,3.249 0.979,5.921 0.979,5.965c0,0.134 -3.101,0.416 -5.743,0.505c-2.374,0.089 -2.894,0.148 -3.101,0.356c-0.431,0.43 -0.164,0.92 0.786,1.425c1.558,0.831 1.914,0.845 4.511,0.341c2.82,-0.549 5.15,-0.846 8.148,-1.039c1.261,-0.089 2.997,-0.193 3.858,-0.252c0.861,-0.06 4.096,-0.119 7.197,-0.119c6.174,-0.015 6.307,-0.03 6.307,-0.831c0,-0.534 -0.786,-1.217 -1.929,-1.647c-1.187,-0.46 -1.736,-0.49 -3.279,-0.238c-1.692,0.297 -5.625,0.742 -5.714,0.668c-0.119,-0.119 1.009,-4.066 1.306,-4.526c0.371,-0.623 0.267,-0.935 -0.593,-1.677c-0.564,-0.475 -0.639,-0.594 -0.386,-0.594c0.178,0 1.246,-0.103 2.374,-0.237c2.167,-0.252 2.642,-0.43 2.553,-1.009c-0.06,-0.416 -0.846,-0.905 -2.034,-1.291l-0.979,-0.312l-3.339,0.831c-3.22,0.787 -7.539,1.722 -8.028,1.722c-0.282,0 -0.371,-0.446 -0.52,-2.315c-0.059,-0.772 -0.044,-1.232 0.06,-1.306c0.074,-0.045 1.038,-0.327 2.137,-0.609c1.083,-0.282 2.982,-0.786 4.199,-1.113c1.232,-0.326 2.657,-0.668 3.191,-0.757c1.083,-0.193 1.988,-0.593 2.122,-0.949c0.163,-0.416 -0.237,-0.965 -1.232,-1.707c-1.395,-1.039 -2.166,-1.336 -2.819,-1.083Zm-0.46,11.248c0.148,0.297 0.222,0.861 0.207,1.663c-0.029,1.32 -0.296,4.066 -0.415,4.184c-0.045,0.03 -0.861,0.119 -1.825,0.178c-0.95,0.06 -2.241,0.164 -2.85,0.208l-1.128,0.104l-0.326,-2.805c-0.178,-1.528 -0.327,-2.879 -0.327,-2.982c0,-0.104 0.238,-0.179 0.639,-0.193c0.341,0 1.632,-0.193 2.849,-0.431c2.701,-0.519 2.894,-0.504 3.176,0.074Z" style="fill:#c00;fill-rule:nonzero;"/><path d="M23.142,34.624c-0.089,0.059 -0.207,0.401 -0.267,0.757c-0.074,0.49 -0.311,0.92 -0.905,1.662c-0.92,1.128 -3.962,3.74 -5.639,4.823c-1.158,0.757 -1.351,1.098 -0.787,1.454c0.772,0.475 5.595,-2.003 8.489,-4.348c0.564,-0.46 1.424,-1.098 1.929,-1.425c0.757,-0.489 0.92,-0.667 0.95,-1.053c0.044,-0.386 -0.045,-0.549 -0.49,-0.92c-0.846,-0.683 -2.82,-1.262 -3.28,-0.95Z" style="fill:#c00;fill-rule:nonzero;"/><path d="M30.162,35.054c-0.267,0.267 0.015,0.683 1.32,1.974c0.772,0.772 2.048,2.152 2.82,3.057c1.425,1.662 2.745,2.805 3.443,2.983c0.223,0.044 0.534,0 0.757,-0.119c1.232,-0.697 0.935,-3.309 -0.52,-4.571c-1.306,-1.157 -4.318,-2.73 -6.232,-3.264c-0.653,-0.178 -1.44,-0.208 -1.588,-0.06Z" style="fill:#c00;fill-rule:nonzero;"/></g></svg>