<?xml version="1.0" encoding="UTF-8" standalone="no"?><!DOCTYPE svg PUBLIC "-//W3C//DTD SVG 1.1//EN" "http://www.w3.org/Graphics/SVG/1.1/DTD/svg11.dtd"><svg width="100%" height="100%" viewBox="0 0 57 57" version="1.1" xmlns="http://www.w3.org/2000/svg" xmlns:xlink="http://www.w3.org/1999/xlink" xml:space="preserve" xmlns:serif="http://www.serif.com/" style="fill-rule:evenodd;clip-rule:evenodd;"><ellipse id="cir_1" cx="28.985" cy="29.244" rx="24.985" ry="25.244" style="fill:#666;"/><circle id="cir_11" serif:id="cir_1" cx="28.5" cy="28.5" r="24.5" style="fill:#fafafa;"/><circle id="cir_2" cx="28.5" cy="28.5" r="22.05" style="fill:#fafafa;stroke:#000;stroke-width:2px;"/><path d="M25.487,15.6c-0.401,0.504 -0.386,0.727 0.059,1.558c0.52,0.994 0.713,2.864 0.727,7.108l0.015,3.621l-2.819,0.327c-1.544,0.178 -3.725,0.43 -4.823,0.564c-1.098,0.133 -2.434,0.237 -2.968,0.237c-1.722,0 -2.493,0.401 -2.226,1.128c0.133,0.356 1.884,1.558 2.626,1.811c0.49,0.163 0.683,0.133 2.568,-0.401c1.202,-0.327 4.897,-0.965 6.648,-1.128l1.069,-0.119l0,4.259c0,2.33 -0.015,4.245 -0.03,4.245c-0.03,0 -1.143,0.133 -2.493,0.296c-1.351,0.164 -3.028,0.297 -3.74,0.297c-1.41,0 -1.989,0.178 -2.137,0.653c-0.133,0.401 0.609,1.024 1.722,1.44c1.053,0.4 1.632,0.4 3.71,0.029c2.626,-0.489 4.852,-0.653 10.017,-0.727c2.849,-0.044 4.912,-0.133 5.149,-0.222c1.202,-0.475 0.237,-1.692 -1.9,-2.434c-0.979,-0.341 -1.068,-0.341 -2.196,-0.134c-1.172,0.208 -5.179,0.668 -5.209,0.609c-0.015,-0.015 0.015,-1.974 0.06,-4.334l0.089,-4.303l2.226,-0.193c1.335,-0.104 4.081,-0.163 6.871,-0.148l4.659,0.044l0.282,-0.356c0.668,-0.816 -0.489,-1.989 -2.686,-2.731c-0.608,-0.207 -0.831,-0.193 -2.448,0.045c-1.603,0.252 -7.895,0.89 -8.697,0.89c-0.326,0 -0.326,0 -0.222,-2.344c0.148,-3.31 0.49,-6.115 0.846,-6.916c0.267,-0.608 0.267,-0.727 0.074,-1.172c-0.237,-0.579 -0.831,-0.995 -2.226,-1.514c-1.336,-0.505 -2.196,-0.49 -2.597,0.015Z" style="fill-rule:nonzero;"/></svg>