<?xml version="1.0" encoding="UTF-8" standalone="no"?>
<!DOCTYPE svg PUBLIC "-//W3C//DTD SVG 1.1//EN" "http://www.w3.org/Graphics/SVG/1.1/DTD/svg11.dtd">
<svg width="100%" height="100%" viewBox="0 0 57 57" version="1.1" xmlns="http://www.w3.org/2000/svg" xmlns:xlink="http://www.w3.org/1999/xlink" xml:space="preserve" xmlns:serif="http://www.serif.com/" style="fill-rule:evenodd;clip-rule:evenodd;">
    <g id="cir_1" transform="matrix(1.0198,0,0,1.03035,-0.0791987,-0.121408)">
        <circle cx="28.5" cy="28.5" r="24.5" style="fill:rgb(119,119,119);"/>
    </g>
    <circle id="cir_11" serif:id="cir_1" cx="28.5" cy="28.5" r="24.5" style="fill:rgb(250,250,250);"/>
    <circle id="cir_2" cx="28.5" cy="28.5" r="22.05" style="fill:rgb(250,250,250);stroke:black;stroke-width:2px;"/>
    <path d="M25.487,15.6C25.086,16.104 25.101,16.327 25.546,17.158C26.066,18.152 26.259,20.022 26.273,24.266L26.288,27.887L23.469,28.214C21.925,28.392 19.744,28.644 18.646,28.778C17.548,28.911 16.212,29.015 15.678,29.015C13.956,29.015 13.185,29.416 13.452,30.143C13.585,30.499 15.336,31.701 16.078,31.954C16.568,32.117 16.761,32.087 18.646,31.553C19.848,31.226 23.543,30.588 25.294,30.425L26.363,30.306L26.363,34.565C26.363,36.895 26.348,38.81 26.333,38.81C26.303,38.81 25.19,38.943 23.84,39.106C22.489,39.27 20.812,39.403 20.1,39.403C18.69,39.403 18.111,39.581 17.963,40.056C17.83,40.457 18.572,41.08 19.685,41.496C20.738,41.896 21.317,41.896 23.395,41.525C26.021,41.036 28.247,40.872 33.412,40.798C36.261,40.754 38.324,40.665 38.561,40.576C39.763,40.101 38.798,38.884 36.661,38.142C35.682,37.801 35.593,37.801 34.465,38.008C33.293,38.216 29.286,38.676 29.256,38.617C29.241,38.602 29.271,36.643 29.316,34.283L29.405,29.98L31.631,29.787C32.966,29.683 35.712,29.624 38.502,29.639L43.161,29.683L43.443,29.327C44.111,28.511 42.954,27.338 40.757,26.596C40.149,26.389 39.926,26.403 38.309,26.641C36.706,26.893 30.414,27.531 29.612,27.531C29.286,27.531 29.286,27.531 29.39,25.187C29.538,21.877 29.88,19.072 30.236,18.271C30.503,17.663 30.503,17.544 30.31,17.099C30.073,16.52 29.479,16.104 28.084,15.585C26.748,15.08 25.888,15.095 25.487,15.6Z" style="fill-rule:nonzero;"/>
</svg>
