<?xml version="1.0" encoding="UTF-8" standalone="no"?><!DOCTYPE svg PUBLIC "-//W3C//DTD SVG 1.1//EN" "http://www.w3.org/Graphics/SVG/1.1/DTD/svg11.dtd"><svg width="100%" height="100%" viewBox="0 0 57 57" version="1.1" xmlns="http://www.w3.org/2000/svg" xmlns:xlink="http://www.w3.org/1999/xlink" xml:space="preserve" xmlns:serif="http://www.serif.com/" style="fill-rule:evenodd;clip-rule:evenodd;"><ellipse id="cir_1" cx="28.985" cy="29.244" rx="24.985" ry="25.244" style="fill:#666;"/><circle id="cir_11" serif:id="cir_1" cx="28.5" cy="28.5" r="24.5" style="fill:#fafafa;"/><circle id="cir_2" cx="28.5" cy="28.5" r="22.05" style="fill:#fafafa;stroke:#000;stroke-width:2px;"/><g><path d="M22.36,20.613c-0.653,0.297 -3.948,1.083 -5.536,1.321c-1.944,0.282 -2.255,0.667 -1.187,1.469c0.252,0.178 0.727,0.311 1.38,0.371l0.995,0.074l-0.089,0.579c-0.134,0.771 -0.891,2.671 -1.514,3.725c-1.113,1.899 -3.428,4.615 -4.793,5.594c-1.069,0.772 -1.188,1.232 -0.342,1.306c1.024,0.104 2.939,-0.861 4.408,-2.211c0.46,-0.43 0.682,-0.549 0.727,-0.416c0.044,0.119 0.178,0.98 0.312,1.915c0.326,2.374 0.356,2.478 0.771,2.968c0.445,0.549 0.698,0.564 1.143,0.074c0.297,-0.326 0.579,-0.401 2.033,-0.594c0.92,-0.118 1.959,-0.222 2.3,-0.222c0.802,0 1.083,-0.297 0.757,-0.802c-0.208,-0.311 -0.193,-0.46 0.208,-1.825c0.504,-1.751 0.801,-2.508 1.187,-2.998c0.356,-0.445 0.371,-1.231 0.03,-1.543c-0.342,-0.297 -1.514,-0.801 -2.152,-0.92c-0.341,-0.059 -0.757,0.015 -1.395,0.282c-0.772,0.312 -2.642,0.831 -3.013,0.831c-0.074,0 0.223,-0.683 0.653,-1.528c0.416,-0.832 0.817,-1.648 0.861,-1.811c0.045,-0.163 0.267,-0.594 0.475,-0.965c0.371,-0.638 0.415,-1.068 0.163,-1.647c-0.089,-0.193 0.015,-0.267 0.534,-0.341c1.158,-0.178 3.146,-0.712 3.725,-0.994c0.905,-0.475 0.683,-1.084 -0.608,-1.633c-0.742,-0.326 -1.395,-0.341 -2.033,-0.059Zm-0.371,10.343c0,0.297 -0.445,3.132 -0.52,3.384c-0.044,0.148 -0.489,0.326 -1.291,0.49c-0.668,0.133 -1.217,0.237 -1.246,0.222c-0.089,-0.089 -0.401,-3.68 -0.327,-3.754c0.119,-0.119 2.167,-0.49 2.835,-0.505c0.341,-0.015 0.549,0.059 0.549,0.163Z" style="fill-rule:nonzero;"/><path d="M29.498,14.543c-0.149,0.134 -0.238,0.49 -0.238,0.846c0,2.286 -2.522,7.435 -5.342,10.937c-0.371,0.46 -0.267,0.891 0.208,0.891c0.697,0 2.597,-1.499 4.081,-3.221c0.786,-0.905 0.846,-0.949 1.35,-0.86c0.312,0.059 1.158,-0.03 2.018,-0.208c1.766,-0.356 4.823,-0.668 5.313,-0.549c0.327,0.074 0.371,0.193 0.475,1.083c0.134,1.247 -0.148,4.853 -0.46,6.055c-0.401,1.499 -0.816,1.706 -2.078,1.024c-1.261,-0.668 -1.454,-0.178 -0.534,1.395c0.312,0.549 0.712,1.306 0.876,1.692c0.578,1.335 1.498,1.335 2.849,0c1.172,-1.158 1.439,-1.945 1.721,-5.002c0.342,-3.813 0.475,-4.763 0.802,-5.55c0.297,-0.682 0.311,-0.757 0.074,-1.202c-0.252,-0.504 -2.3,-1.929 -2.76,-1.929c-0.149,0 -0.431,0.059 -0.638,0.134c-0.416,0.163 -6.263,1.202 -6.753,1.202c-0.311,0 -0.311,-0.015 0.134,-0.787c0.252,-0.415 0.727,-1.306 1.054,-1.944c0.341,-0.653 0.742,-1.35 0.89,-1.573c0.237,-0.297 0.267,-0.475 0.148,-0.757c-0.178,-0.49 -1.098,-1.291 -1.855,-1.632c-0.742,-0.342 -1.038,-0.356 -1.335,-0.045Z" style="fill-rule:nonzero;"/><path d="M31.041,25.881c-0.445,0.237 -1.306,0.549 -1.914,0.683c-0.935,0.207 -1.217,0.222 -1.811,0.074c-0.4,-0.104 -0.86,-0.149 -1.024,-0.089c-0.296,0.089 -0.311,0.178 -0.237,0.786c0.059,0.386 0.163,2.864 0.237,5.506c0.06,2.656 0.164,5.046 0.223,5.342c0.341,1.796 1.87,3.206 4.452,4.126c1.157,0.401 1.261,0.415 4.378,0.401c3.057,0 3.25,-0.015 4.526,-0.416c2.434,-0.742 4.17,-1.914 4.437,-2.998c0.074,-0.252 -0.059,-0.727 -0.415,-1.513c-0.282,-0.624 -0.653,-1.766 -0.817,-2.523c-0.356,-1.632 -0.371,-1.662 -0.831,-1.662c-0.415,0 -0.504,0.267 -0.875,2.419c-0.327,1.884 -0.668,2.404 -2.004,3.072c-1.083,0.534 -2.567,0.786 -4.986,0.801c-3.383,0.015 -4.853,-0.416 -5.476,-1.618c-0.267,-0.504 -0.326,-0.92 -0.356,-2.597l-0.059,-2.018l2.359,-0.282c2.018,-0.252 2.345,-0.341 2.389,-0.564c0.03,-0.148 -0.044,-0.386 -0.178,-0.534c-0.207,-0.223 -0.178,-0.401 0.357,-1.87c0.326,-0.89 0.801,-1.87 1.038,-2.181c0.505,-0.624 0.579,-1.291 0.178,-1.647c-0.326,-0.312 -1.751,-0.95 -2.329,-1.054c-0.327,-0.059 -0.668,0.044 -1.262,0.356Zm0.134,2.553c0,0.267 -0.119,1.023 -0.253,1.662l-0.252,1.187l-0.816,0.178c-0.445,0.104 -0.905,0.193 -0.994,0.208c-0.238,0 -0.253,-1.039 -0.03,-2.33c0.163,-0.935 0.163,-0.935 0.786,-1.084c0.327,-0.089 0.683,-0.192 0.757,-0.222c0.089,-0.03 0.297,-0.06 0.49,-0.06c0.282,-0.014 0.327,0.06 0.312,0.461Z" style="fill-rule:nonzero;"/></g></svg>