<?xml version="1.0" encoding="UTF-8" standalone="no"?><!DOCTYPE svg PUBLIC "-//W3C//DTD SVG 1.1//EN" "http://www.w3.org/Graphics/SVG/1.1/DTD/svg11.dtd"><svg width="100%" height="100%" viewBox="0 0 57 57" version="1.1" xmlns="http://www.w3.org/2000/svg" xmlns:xlink="http://www.w3.org/1999/xlink" xml:space="preserve" xmlns:serif="http://www.serif.com/" style="fill-rule:evenodd;clip-rule:evenodd;"><ellipse id="cir_1" cx="28.985" cy="29.244" rx="24.985" ry="25.244" style="fill:#666;"/><circle id="cir_11" serif:id="cir_1" cx="28.5" cy="28.5" r="24.5" style="fill:#fafafa;"/><circle id="cir_2" cx="28.5" cy="28.5" r="22.05" style="fill:#fafafa;stroke:#000;stroke-width:2px;"/><g><path d="M22.02,14.625c-0.267,0.104 -0.237,0.95 0.03,1.336c0.341,0.475 0.519,2.092 0.519,4.66l0,2.33l-0.474,0.074c-1.544,0.267 -2.805,0.43 -2.85,0.386c-0.015,-0.03 0.045,-0.995 0.149,-2.137c0.104,-1.143 0.163,-2.197 0.118,-2.33c-0.089,-0.312 -0.994,-1.039 -1.736,-1.395c-0.445,-0.208 -0.608,-0.223 -0.935,-0.074c-0.356,0.163 -0.386,0.222 -0.267,0.727c0.074,0.297 0.134,1.276 0.134,2.181c0,1.262 -0.075,1.915 -0.357,2.924c-0.311,1.157 -0.326,1.35 -0.148,1.781c0.238,0.564 1.128,1.602 1.38,1.602c0.104,0 0.46,-0.207 0.802,-0.46c0.549,-0.4 2.671,-1.261 3.784,-1.528l0.4,-0.089l0,2.137c0,2.092 0,2.137 -0.326,2.211c-1.395,0.356 -4.779,0.712 -5.817,0.638c-1.277,-0.104 -1.573,0 -1.573,0.594c0,0.415 1.217,1.691 1.899,2.003c0.579,0.252 0.609,0.534 0.119,1.796c-0.757,2.018 -1.825,3.754 -3.309,5.327c-1.128,1.202 -0.624,1.677 0.92,0.861c2.122,-1.113 3.606,-2.731 4.852,-5.298c0.342,-0.712 0.831,-1.618 1.069,-2.018c0.386,-0.638 0.415,-0.772 0.267,-1.173c-0.089,-0.252 -0.163,-0.46 -0.134,-0.474c0.015,-0.015 0.46,-0.179 0.98,-0.342l0.95,-0.326l-0.104,2.389c-0.06,1.306 -0.208,2.953 -0.327,3.665c-0.415,2.301 -0.415,2.746 -0.074,3.859c0.534,1.766 1.187,2.226 1.989,1.395c0.92,-0.965 0.905,-0.698 0.934,-10.64c0.03,-9.201 0.179,-12.718 0.594,-14.158c0.327,-1.128 0.134,-1.514 -1.024,-2.092c-0.846,-0.416 -1.885,-0.564 -2.434,-0.342Z" style="fill-rule:nonzero;"/><path d="M32.112,14.032c-0.104,0.029 -0.193,0.282 -0.193,0.534c0,0.979 -1.084,2.508 -3.458,4.897c-1.321,1.321 -1.573,1.647 -1.44,1.826c0.297,0.341 0.906,0.237 2.152,-0.386l1.173,-0.594l1.216,1.187c0.728,0.713 1.336,1.188 1.514,1.188c0.49,0 1.069,-0.609 1.173,-1.217c0.133,-0.861 -0.193,-1.232 -1.47,-1.618c-1.306,-0.415 -1.291,-0.401 -0.979,-0.638c0.148,-0.104 0.935,-0.237 1.796,-0.282c0.831,-0.059 2.003,-0.208 2.597,-0.341c0.593,-0.134 1.127,-0.208 1.172,-0.164c0.044,0.045 -0.134,0.446 -0.401,0.876c-1.81,2.938 -5.491,6.262 -9.141,8.236c-0.98,0.534 -1.336,0.802 -1.365,1.054c-0.03,0.193 0.044,0.371 0.178,0.415c0.756,0.282 4.555,-1.217 6.618,-2.611c0.505,-0.342 0.935,-0.594 0.95,-0.564c0.252,0.385 0.905,2.508 0.787,2.582c-0.075,0.044 -5.254,0.549 -7.228,0.712c-1.187,0.089 -2.24,0.223 -2.329,0.282c-0.104,0.074 -0.193,0.282 -0.193,0.475c0,0.401 0.771,0.92 1.973,1.321c0.668,0.222 0.802,0.222 2.523,-0.119c2.315,-0.475 5.313,-0.727 5.491,-0.49c0.178,0.267 -0.015,6.263 -0.237,7.346c-0.282,1.291 -0.327,1.321 -1.633,1.083c-2.597,-0.489 -2.627,-0.267 -0.282,2.167c1.336,1.395 1.84,1.825 2.137,1.825c0.831,0 2.182,-1.38 2.508,-2.567c0.119,-0.445 0.134,-1.974 0.059,-5.417l-0.103,-4.793l2.864,0.045c3.131,0.044 3.546,-0.03 3.546,-0.683c0,-0.49 -0.816,-1.172 -1.855,-1.558c-0.994,-0.371 -1.142,-0.371 -2.968,-0.074c-0.786,0.133 -1.454,0.222 -1.484,0.178c-0.029,-0.03 -0.014,-0.431 0.06,-0.876c0.222,-1.41 -0.252,-1.974 -1.944,-2.285l-0.534,-0.104l1.187,-1.128c0.653,-0.638 1.781,-1.84 2.493,-2.701c0.712,-0.861 1.647,-1.84 2.063,-2.196c0.415,-0.356 0.756,-0.742 0.756,-0.846c0,-0.668 -2.211,-2.152 -3.19,-2.152c-0.252,0 -1.083,0.193 -1.84,0.445c-1.455,0.46 -2.39,0.683 -2.39,0.549c0,-0.044 0.238,-0.222 0.52,-0.4c1.053,-0.653 0.534,-1.648 -1.158,-2.211c-0.89,-0.312 -1.335,-0.357 -1.691,-0.208Z" style="fill-rule:nonzero;"/><path d="M31.34,22.698c-0.549,0.223 -3.918,0.876 -4.511,0.876c-0.282,0 -0.594,0.104 -0.698,0.223c-0.386,0.46 1.054,2.151 1.825,2.151c0.327,0 1.024,-0.356 2.627,-1.335c1.499,-0.906 2.152,-1.514 2.033,-1.84c-0.104,-0.268 -0.712,-0.297 -1.276,-0.075Z" style="fill-rule:nonzero;"/><path d="M27.556,32.122c-0.134,0.118 -0.238,0.311 -0.238,0.415c0,0.356 1.647,2.835 2.3,3.458c0.713,0.697 1.128,0.787 1.855,0.416c0.742,-0.386 0.906,-1.677 0.357,-2.776c-0.268,-0.504 -0.92,-0.905 -2.315,-1.365c-1.321,-0.445 -1.648,-0.475 -1.959,-0.148Z" style="fill-rule:nonzero;"/></g></svg>