<?xml version="1.0" encoding="UTF-8" standalone="no"?><!DOCTYPE svg PUBLIC "-//W3C//DTD SVG 1.1//EN" "http://www.w3.org/Graphics/SVG/1.1/DTD/svg11.dtd"><svg width="100%" height="100%" viewBox="0 0 57 57" version="1.1" xmlns="http://www.w3.org/2000/svg" xmlns:xlink="http://www.w3.org/1999/xlink" xml:space="preserve" xmlns:serif="http://www.serif.com/" style="fill-rule:evenodd;clip-rule:evenodd;"><ellipse id="cir_1" cx="28.985" cy="29.244" rx="24.985" ry="25.244" style="fill:#666;"/><circle id="cir_11" serif:id="cir_1" cx="28.5" cy="28.5" r="24.5" style="fill:#fafafa;"/><circle id="cir_2" cx="28.5" cy="28.5" r="22.05" style="fill:#fafafa;stroke:#000;stroke-width:2px;"/><g><path d="M33.518,13.805c-1.113,0.296 -5.64,1.038 -8.133,1.32c-2.181,0.253 -2.226,0.253 -3.161,-0.059c-1.142,-0.371 -1.38,-0.386 -1.81,-0.074c-0.43,0.297 -0.416,0.638 0.059,1.558c0.401,0.742 0.401,0.772 0.371,3.814c-0.029,3.992 -0.237,5.713 -0.86,7.405c-0.193,0.549 -0.208,0.742 -0.045,1.321c0.104,0.371 0.416,0.92 0.683,1.202c0.564,0.593 0.638,0.593 2.062,0c2.078,-0.876 8.682,-1.736 13.371,-1.736c2.271,0 2.211,-0.089 2.078,2.864c-0.178,3.992 -0.609,5.669 -1.796,6.885c-0.875,0.906 -0.831,0.906 -2.508,0.238c-1.098,-0.416 -1.261,-0.43 -1.409,-0.015c-0.09,0.252 0.103,0.668 1.009,2.048c0.623,0.95 1.335,1.974 1.602,2.27l0.475,0.535l0.713,-0.208c0.934,-0.282 2.24,-1.321 2.893,-2.315c1.054,-1.603 1.544,-3.532 1.959,-7.776c0.223,-2.286 0.416,-3.028 0.965,-3.933c0.49,-0.831 0.415,-1.113 -0.46,-1.692c-0.431,-0.282 -1.291,-0.712 -1.9,-0.949c-1.009,-0.401 -1.202,-0.431 -2.003,-0.312c-0.49,0.074 -2.093,0.223 -3.562,0.356c-1.469,0.119 -3.101,0.267 -3.621,0.312l-0.949,0.104l0.089,-0.579c0.059,-0.312 0.103,-0.757 0.103,-0.965c0,-0.46 -0.014,-0.46 3.384,-0.801c2.374,-0.223 3.072,-0.49 3.072,-1.128c0,-0.282 -0.149,-0.43 -0.683,-0.697c-1.142,-0.564 -2.73,-0.594 -5.209,-0.089c-0.415,0.089 -0.415,0.074 -0.415,-0.728c0,-0.979 -0.193,-0.89 2.864,-1.216c2.345,-0.238 3.146,-0.52 3.146,-1.099c0,-0.489 -0.727,-0.905 -1.944,-1.142c-0.742,-0.134 -1.187,-0.134 -2.167,0.029c-1.869,0.312 -1.81,0.327 -1.662,-0.43c0.06,-0.341 0.119,-0.831 0.119,-1.083l0,-0.46l1.41,-0.178c1.988,-0.238 4.333,-0.728 4.734,-0.995c0.712,-0.46 0.297,-1.068 -1.054,-1.543c-0.95,-0.341 -0.831,-0.341 -1.81,-0.059Zm-6.663,3.695c0.103,0.282 0.207,0.801 0.207,1.157l0,0.653l-1.662,0.178c-0.92,0.104 -1.781,0.208 -1.929,0.223c-0.208,0.044 -0.237,-0.059 -0.163,-0.787c0.163,-1.721 0.148,-1.706 1.321,-1.81c2.092,-0.163 1.988,-0.193 2.226,0.386Zm0.207,4.808l0,0.861l-1.662,0.178c-0.92,0.089 -1.825,0.207 -2.003,0.252c-0.327,0.059 -0.342,0.03 -0.342,-0.994l0,-1.069l0.713,0.089c0.564,0.06 1.558,0.015 3.116,-0.178c0.119,-0.015 0.178,0.252 0.178,0.861Zm0,4.007l0,1.009l-1.662,0.252c-0.92,0.134 -1.899,0.297 -2.181,0.341l-0.505,0.089l0.089,-0.934c0.06,-0.52 0.104,-1.084 0.104,-1.277c0,-0.326 0.045,-0.341 0.638,-0.282c0.52,0.075 1.276,0.015 3.339,-0.207c0.119,-0.015 0.178,0.282 0.178,1.009Z" style="fill-rule:nonzero;"/><path d="M16.852,30.974c-0.089,0.104 -0.267,0.52 -0.4,0.921c-0.149,0.415 -0.594,1.469 -0.995,2.359c-0.638,1.365 -0.756,1.736 -0.756,2.523c-0.015,1.128 0.267,1.721 0.949,2.063c1.069,0.519 1.781,-0.208 2.419,-2.479c0.49,-1.662 0.505,-3.012 0.074,-4.184c-0.296,-0.802 -0.727,-1.395 -1.009,-1.395c-0.074,0 -0.193,0.089 -0.282,0.192Z" style="fill-rule:nonzero;"/><path d="M20.577,32.132c-0.104,0.104 -0.193,0.297 -0.193,0.416c0,0.371 1.38,2.715 1.959,3.324c0.505,0.534 0.609,0.578 1.098,0.504c0.698,-0.118 1.069,-0.46 1.188,-1.083c0.237,-1.321 -0.416,-2.3 -1.945,-2.864c-1.142,-0.445 -1.869,-0.534 -2.107,-0.297Z" style="fill-rule:nonzero;"/><path d="M25.801,31.613c-0.282,0.296 -0.238,0.415 0.549,1.736c0.905,1.499 1.825,2.478 2.345,2.478c0.994,0 1.484,-0.549 1.484,-1.677c0,-1.202 -0.831,-1.944 -2.805,-2.537c-1.009,-0.297 -1.261,-0.297 -1.573,0Z" style="fill-rule:nonzero;"/><path d="M30.995,30.871c-0.341,0.341 -0.282,0.593 0.401,1.513c1.632,2.226 2.344,2.85 3.294,2.85c0.846,0 1.276,-0.52 1.276,-1.514c0,-1.41 -0.608,-2.004 -2.745,-2.612c-1.573,-0.46 -1.959,-0.505 -2.226,-0.237Z" style="fill-rule:nonzero;"/></g></svg>