<?xml version="1.0" encoding="UTF-8" standalone="no"?><!DOCTYPE svg PUBLIC "-//W3C//DTD SVG 1.1//EN" "http://www.w3.org/Graphics/SVG/1.1/DTD/svg11.dtd"><svg width="100%" height="100%" viewBox="0 0 521 577" version="1.1" xmlns="http://www.w3.org/2000/svg" xmlns:xlink="http://www.w3.org/1999/xlink" xml:space="preserve" xmlns:serif="http://www.serif.com/" style="fill-rule:evenodd;clip-rule:evenodd;stroke-miterlimit:10;"><path id="path982" d="M32,32l457,0m-457,57.111l457,0m-457,57.111l457,0m-457,57.111l457,0m-457,57.111l457,0m-457,57.112l457,0m-457,57.111l457,0m-457,57.111l457,0m-457,57.111l457,0m-457,57.111l457,0m-457,-514l0,514m457,-514l0,514m-399.875,-514l0,228.444m0,57.112l0,228.444m57.125,-514l0,228.444m0,57.112l0,228.444m57.125,-514l0,228.444m0,57.112l0,228.444m57.125,-514l0,228.444m0,57.112l0,228.444m57.125,-514l0,228.444m0,57.112l0,228.444m57.125,-514l0,228.444m0,57.112l0,228.444m57.125,-514l0,228.444m0,57.112l0,228.444m-228.5,-514l114.25,114.222m0,-114.222l-114.25,114.222m0,285.556l114.25,114.222m0,-114.222l-114.25,114.222" style="fill:none;stroke:#000;stroke-width:1px;"/></svg>