<?xml version="1.0" encoding="UTF-8" standalone="no"?>
<svg
   xmlns:dc="http://purl.org/dc/elements/1.1/"
   xmlns:cc="http://creativecommons.org/ns#"
   xmlns:rdf="http://www.w3.org/1999/02/22-rdf-syntax-ns#"
   xmlns:svg="http://www.w3.org/2000/svg"
   xmlns="http://www.w3.org/2000/svg"
   width="521"
   height="577"
   viewBox="0 0 137.84791 152.66459"
   version="1.1"
   id="svg8">
  <defs
     id="defs2" />
  <metadata
     id="metadata5">
    <rdf:RDF>
      <cc:Work
         rdf:about="">
        <dc:format>image/svg+xml</dc:format>
        <dc:type
           rdf:resource="http://purl.org/dc/dcmitype/StillImage" />
        <dc:title></dc:title>
      </cc:Work>
    </rdf:RDF>
  </metadata>
  <g
     id="layer1"
     transform="translate(0,-144.33539)">
    <path
       style="fill:none;stroke:#562600;stroke-width:0.5291667;stroke-miterlimit:10;stroke-dasharray:none;stroke-opacity:1;paint-order:fill stroke markers"
       d="M 8.4666761,152.80207 H 129.38126 M 8.4666761,167.91272 H 129.38126 M 8.4666761,183.02336 H 129.38126 M 8.4666761,198.13401 H 129.38126 M 8.4666761,213.24466 H 129.38126 M 8.4666761,228.35531 H 129.38126 M 8.4666761,243.46595 H 129.38126 M 8.4666761,258.57661 H 129.38126 M 8.4666761,273.68724 H 129.38126 M 8.4666761,288.7979 H 129.38126 M 8.4666761,152.80207 V 288.7979 M 129.38126,152.80207 V 288.7979 M 23.581,152.80207 v 60.44259 m 0,15.11065 V 288.7979 M 38.695324,152.80207 v 60.44259 m 0,15.11065 V 288.7979 M 53.809648,152.80207 v 60.44259 m 0,15.11065 V 288.7979 M 68.923972,152.80207 v 60.44259 m 0,15.11065 V 288.7979 M 84.038301,152.80207 v 60.44259 m 0,15.11065 V 288.7979 M 99.152618,152.80207 v 60.44259 m 0,15.11065 V 288.7979 M 114.26695,152.80207 v 60.44259 m 0,15.11065 V 288.7979 M 53.809648,152.80207 84.038301,183.02336 m 0,-30.22129 -30.228653,30.22129 m 0,75.55325 30.228653,30.22129 m 0,-30.22129 -30.228653,30.22129"
       stroke-miterlimit="10"
       id="path982" />
    <text
       id="text984"
       dominant-baseline="central"
       y="31.137089"
       x="-220.79575"
       text-decoration="normal"
       font-weight="normal"
       font-style="normal"
       font-size="36px"
       style="font-style:normal;font-weight:normal;font-size:10.88193798px;font-family:DFKai-SB, STKaiti;dominant-baseline:central;text-anchor:middle;fill:#562600;stroke:none;stroke-width:0.26458332;fill-opacity:1;"
       transform="matrix(0,-0.99996551,1.0000345,0,0,0)">楚</text>
    <text
       id="text986"
       dominant-baseline="central"
       y="46.250893"
       x="-220.79575"
       text-decoration="normal"
       font-weight="normal"
       font-style="normal"
       font-size="36px"
       style="font-style:normal;font-weight:normal;font-size:10.88193798px;font-family:DFKai-SB, STKaiti;dominant-baseline:central;text-anchor:middle;fill:#562600;stroke:none;stroke-width:0.26458332;fill-opacity:1;"
       transform="matrix(0,-0.99996551,1.0000345,0,0,0)">河</text>
    <text
       style="font-style:normal;font-weight:normal;font-size:10.88193798px;font-family:DFKai-SB, STKaiti;dominant-baseline:central;text-anchor:middle;fill:#562600;stroke:none;stroke-width:0.26458332;fill-opacity:1;"
       font-size="36px"
       font-style="normal"
       font-weight="normal"
       text-decoration="normal"
       x="220.79575"
       y="-106.7061"
       dominant-baseline="central"
       id="text988"
       transform="matrix(0,0.99996551,-1.0000345,0,0,0)">漢</text>
    <text
       style="font-style:normal;font-weight:normal;font-size:10.88193798px;font-family:DFKai-SB, STKaiti;dominant-baseline:central;text-anchor:middle;fill:#562600;stroke:none;stroke-width:0.26458332;fill-opacity:1;"
       font-size="36px"
       font-style="normal"
       font-weight="normal"
       text-decoration="normal"
       x="220.79575"
       y="-91.5923"
       dominant-baseline="central"
       id="text990"
       transform="matrix(0,0.99996551,-1.0000345,0,0,0)">界</text>
  </g>
</svg>
