<?xml version="1.0" encoding="UTF-8" standalone="no"?>
<svg
   xmlns:dc="http://purl.org/dc/elements/1.1/"
   xmlns:cc="http://creativecommons.org/ns#"
   xmlns:rdf="http://www.w3.org/1999/02/22-rdf-syntax-ns#"
   xmlns:svg="http://www.w3.org/2000/svg"
   xmlns="http://www.w3.org/2000/svg"
   xmlns:sodipodi="http://sodipodi.sourceforge.net/DTD/sodipodi-0.dtd"
   xmlns:inkscape="http://www.inkscape.org/namespaces/inkscape"
   width="521"
   height="577"
   viewBox="0 0 137.84791 152.66459"
   version="1.1"
   id="svg8"
   sodipodi:docname="board.svg"
   inkscape:version="0.92.2 5c3e80d, 2017-08-06">
  <sodipodi:namedview
     pagecolor="#ffffff"
     bordercolor="#666666"
     borderopacity="1"
     objecttolerance="10"
     gridtolerance="10"
     guidetolerance="10"
     inkscape:pageopacity="0"
     inkscape:pageshadow="2"
     inkscape:window-width="1216"
     inkscape:window-height="695"
     id="namedview11"
     showgrid="false"
     inkscape:zoom="1.6360485"
     inkscape:cx="138.55985"
     inkscape:cy="312.94915"
     inkscape:window-x="0"
     inkscape:window-y="0"
     inkscape:window-maximized="0"
     inkscape:current-layer="svg8" />
  <defs
     id="defs2" />
  <metadata
     id="metadata5">
    <rdf:RDF>
      <cc:Work
         rdf:about="">
        <dc:format>image/svg+xml</dc:format>
        <dc:type
           rdf:resource="http://purl.org/dc/dcmitype/StillImage" />
        <dc:title />
      </cc:Work>
    </rdf:RDF>
  </metadata>
  <path
     inkscape:connector-curvature="0"
     id="path982"
     stroke-miterlimit="10"
     d="M 8.4666761,8.46668 H 129.38126 M 8.4666761,23.57733 H 129.38126 M 8.4666761,38.68797 H 129.38126 M 8.4666761,53.79862 H 129.38126 M 8.4666761,68.90927 H 129.38126 M 8.4666761,84.01992 H 129.38126 M 8.4666761,99.13056 H 129.38126 M 8.4666761,114.24122 H 129.38126 M 8.4666761,129.35185 H 129.38126 M 8.4666761,144.46251 H 129.38126 M 8.4666761,8.46668 V 144.46251 M 129.38126,8.46668 V 144.46251 M 23.581,8.46668 v 60.44259 m 0,15.11065 v 60.44259 M 38.695324,8.46668 v 60.44259 m 0,15.11065 v 60.44259 M 53.809648,8.46668 v 60.44259 m 0,15.11065 v 60.44259 M 68.923972,8.46668 v 60.44259 m 0,15.11065 v 60.44259 M 84.038301,8.46668 v 60.44259 m 0,15.11065 v 60.44259 M 99.152618,8.46668 v 60.44259 m 0,15.11065 v 60.44259 M 114.26695,8.46668 v 60.44259 m 0,15.11065 v 60.44259 M 53.809648,8.46668 84.038301,38.68797 m 0,-30.22129 -30.228653,30.22129 m 0,75.55325 30.228653,30.22129 m 0,-30.22129 -30.228653,30.22129"
     style="fill:none;stroke:#381800;stroke-width:0.5291667;stroke-miterlimit:10;stroke-dasharray:none;stroke-opacity:1;paint-order:fill stroke markers" />
  <text
     transform="matrix(0,-0.99996551,1.0000345,0,0,0)"
     style="font-style:normal;font-weight:normal;font-size:10.88193798px;font-family:DFKai-SB, STKaiti;dominant-baseline:central;text-anchor:middle;fill:#381800;fill-opacity:1;stroke:none;stroke-width:0.26458332;"
     font-size="36px"
     font-style="normal"
     font-weight="normal"
     text-decoration="normal"
     x="-76.455376"
     y="31.137089"
     dominant-baseline="central"
     id="text984">楚</text>
  <text
     transform="matrix(0,-0.99996551,1.0000345,0,0,0)"
     style="font-style:normal;font-weight:normal;font-size:10.88193798px;font-family:DFKai-SB, STKaiti;dominant-baseline:central;text-anchor:middle;fill:#381800;fill-opacity:1;stroke:none;stroke-width:0.26458332;"
     font-size="36px"
     font-style="normal"
     font-weight="normal"
     text-decoration="normal"
     x="-76.455376"
     y="46.250893"
     dominant-baseline="central"
     id="text986">河</text>
  <text
     transform="matrix(0,0.99996551,-1.0000345,0,0,0)"
     id="text988"
     dominant-baseline="central"
     y="-106.7061"
     x="76.455376"
     text-decoration="normal"
     font-weight="normal"
     font-style="normal"
     font-size="36px"
     style="font-style:normal;font-weight:normal;font-size:10.88193798px;font-family:DFKai-SB, STKaiti;dominant-baseline:central;text-anchor:middle;fill:#381800;fill-opacity:1;stroke:none;stroke-width:0.26458332;">漢</text>
  <text
     transform="matrix(0,0.99996551,-1.0000345,0,0,0)"
     id="text990"
     dominant-baseline="central"
     y="-91.5923"
     x="76.455376"
     text-decoration="normal"
     font-weight="normal"
     font-style="normal"
     font-size="36px"
     style="font-style:normal;font-weight:normal;font-size:10.88193798px;font-family:DFKai-SB, STKaiti;dominant-baseline:central;text-anchor:middle;fill:#381800;fill-opacity:1;stroke:none;stroke-width:0.26458332;">界</text>
</svg>
