<?xml version="1.0" encoding="UTF-8" standalone="no"?><!DOCTYPE svg PUBLIC "-//W3C//DTD SVG 1.1//EN" "http://www.w3.org/Graphics/SVG/1.1/DTD/svg11.dtd"><svg width="100%" height="100%" viewBox="0 0 57 57" version="1.1" xmlns="http://www.w3.org/2000/svg" xmlns:xlink="http://www.w3.org/1999/xlink" xml:space="preserve" xmlns:serif="http://www.serif.com/" style="fill-rule:evenodd;clip-rule:evenodd;"><ellipse id="cir_1" cx="28.985" cy="29.244" rx="24.985" ry="25.244" style="fill:#666;"/><circle id="cir_11" serif:id="cir_1" cx="28.5" cy="28.5" r="24.5" style="fill:#fafafa;"/><circle id="cir_2" cx="28.5" cy="28.5" r="22.05" style="fill:#fafafa;stroke:#000;stroke-width:2px;"/><path d="M25.993,12.142c-0.223,0.341 -0.223,0.43 0.059,1.336c0.164,0.534 0.342,1.32 0.386,1.751c0.06,0.43 0.119,0.935 0.164,1.098c0.044,0.297 -0.03,0.341 -1.099,0.49c-0.623,0.089 -1.914,0.237 -2.849,0.326c-2.745,0.252 -3.146,0.505 -2.241,1.38c0.549,0.52 1.737,0.683 3.799,0.52c0.816,-0.06 1.707,-0.119 1.974,-0.134l0.475,0l0,2.33l-0.698,0.089c-2.151,0.282 -4.392,0.43 -5.297,0.356c-0.579,-0.059 -1.143,-0.03 -1.306,0.059c-0.386,0.208 -0.342,0.906 0.103,1.321c0.535,0.505 0.772,1.395 1.188,4.452c0.415,3.131 0.549,3.666 0.979,4.215c0.371,0.475 1.083,0.534 1.306,0.104c0.134,-0.223 0.401,-0.297 1.677,-0.371c0.846,-0.06 1.647,-0.134 1.796,-0.178c0.222,-0.075 0.252,0.044 0.252,1.024l0,1.113l-0.994,0.089c-0.564,0.059 -2.538,0.267 -4.423,0.474c-1.87,0.193 -4.214,0.401 -5.194,0.446c-2.062,0.104 -2.686,0.252 -2.834,0.682c-0.119,0.386 0.43,0.95 1.632,1.662c1.024,0.609 1.336,0.638 2.879,0.253c1.469,-0.371 3.295,-0.683 5.817,-0.98c1.099,-0.119 2.256,-0.267 2.553,-0.297l0.534,-0.074l0.06,4.274c0.044,3.977 0.059,4.289 0.356,4.779c0.178,0.311 0.415,0.519 0.578,0.519c0.342,0 0.891,-0.787 1.113,-1.543c0.268,-0.906 0.594,-4.452 0.594,-6.352c0,-1.588 0.03,-1.81 0.267,-1.885c0.742,-0.207 6.975,-0.415 10.047,-0.341c3.74,0.104 4.111,0.045 4.2,-0.653c0.059,-0.564 -0.609,-1.291 -1.677,-1.781c-1.247,-0.593 -1.573,-0.638 -3.503,-0.371c-1.409,0.193 -8.414,0.831 -9.126,0.831c-0.163,0 -0.208,-0.237 -0.208,-1.024c0,-1.202 -0.133,-1.113 2.152,-1.276c1.35,-0.104 1.35,-0.104 1.528,0.282c0.268,0.579 0.757,0.757 1.41,0.49c0.282,-0.134 0.638,-0.401 0.787,-0.623c0.133,-0.208 0.727,-1.989 1.32,-3.948c0.683,-2.226 1.217,-3.754 1.47,-4.111c0.519,-0.756 0.489,-1.098 -0.164,-1.676c-0.623,-0.535 -2.493,-1.455 -3.235,-1.573c-0.282,-0.045 -1.32,0.133 -2.656,0.46c-1.202,0.296 -2.256,0.534 -2.33,0.534c-0.074,0 -0.134,-0.49 -0.134,-1.084l0,-1.068l2.33,-0.356c2.642,-0.401 4.126,-0.757 4.482,-1.113c0.386,-0.401 -0.044,-0.98 -1.024,-1.395c-0.95,-0.386 -1.499,-0.371 -3.487,0.074c-2.39,0.549 -2.301,0.549 -2.301,0.059c0,-0.237 0.104,-0.949 0.223,-1.558c0.119,-0.623 0.178,-1.217 0.134,-1.335c-0.119,-0.297 -1.099,-0.787 -1.959,-0.965c-1.217,-0.252 -1.618,-0.208 -1.885,0.193Zm7.999,11.189c-0.015,0.594 -0.045,1.113 -0.074,1.143c-0.03,0.015 -0.49,-0.045 -1.009,-0.163c-0.817,-0.163 -1.143,-0.163 -2.152,0.015c-0.668,0.118 -1.262,0.222 -1.336,0.222c-0.133,0 -0.059,-1.721 0.104,-1.87c0.148,-0.148 2.775,-0.475 3.665,-0.46l0.817,0.03l-0.015,1.083Zm-7.361,0.727l-0.044,1.01l-1.855,0.237c-1.024,0.134 -1.87,0.237 -1.885,0.223c-0.015,-0.015 -0.074,-0.505 -0.134,-1.084l-0.103,-1.038l1.543,-0.149c0.846,-0.074 1.766,-0.163 2.033,-0.163l0.49,-0.03l-0.045,0.994Zm7.005,2.301c0,0.282 -0.549,2.493 -0.638,2.582c-0.045,0.044 -0.342,0.015 -0.653,-0.074c-0.401,-0.104 -0.95,-0.119 -1.692,-0.015c-0.609,0.074 -1.143,0.148 -1.202,0.148c-0.074,0 -0.119,-0.504 -0.119,-1.113c0,-1.024 0.03,-1.113 0.341,-1.187c0.268,-0.059 3.132,-0.445 3.785,-0.505c0.089,0 0.178,0.075 0.178,0.164Zm-6.975,1.884l0,1.158l-0.994,0.089c-0.564,0.059 -1.321,0.104 -1.692,0.104l-0.683,0l-0.104,-0.787c-0.178,-1.484 -0.193,-1.439 0.772,-1.454c0.683,-0.015 1.929,-0.134 2.597,-0.267c0.059,0 0.104,0.504 0.104,1.157Z" style="fill-rule:nonzero;"/></svg>