<?xml version="1.0" encoding="UTF-8" standalone="no"?>
<!DOCTYPE svg PUBLIC "-//W3C//DTD SVG 1.1//EN" "http://www.w3.org/Graphics/SVG/1.1/DTD/svg11.dtd">
<svg width="100%" height="100%" viewBox="0 0 57 57" version="1.1" xmlns="http://www.w3.org/2000/svg" xmlns:xlink="http://www.w3.org/1999/xlink" xml:space="preserve" xmlns:serif="http://www.serif.com/" style="fill-rule:evenodd;clip-rule:evenodd;">
    <g id="cir_1" transform="matrix(1.0198,0,0,1.03035,-0.0791987,-0.121408)">
        <circle cx="28.5" cy="28.5" r="24.5" style="fill:rgb(119,119,119);"/>
    </g>
    <circle id="cir_11" serif:id="cir_1" cx="28.5" cy="28.5" r="24.5" style="fill:rgb(250,250,250);"/>
    <circle id="cir_2" cx="28.5" cy="28.5" r="22.05" style="fill:rgb(250,250,250);stroke:rgb(255,0,0);stroke-width:2px;"/>
    <g>
        <path d="M19.618,13.304C19.499,13.423 19.35,13.898 19.291,14.358C19.187,15.263 18.505,17.207 17.644,19.077L17.11,20.234L16.249,20.13C15.284,20.026 14.75,20.205 14.75,20.65C14.75,20.813 14.928,21.288 15.166,21.718L15.566,22.505L15.551,26.897C15.537,30.355 15.477,31.631 15.255,32.982C14.854,35.475 14.884,36.736 15.344,37.642C15.744,38.428 16.264,38.918 16.694,38.918C17.05,38.918 17.57,38.102 17.57,37.538C17.57,37.167 17.614,37.137 18.134,37.137C18.43,37.137 19.781,37.003 21.131,36.84C22.482,36.677 23.877,36.529 24.248,36.514C24.826,36.469 24.915,36.425 24.96,36.128C24.99,35.92 24.886,35.638 24.693,35.43L24.381,35.089L24.841,33.501C25.093,32.626 25.464,31.631 25.657,31.275C25.865,30.934 26.028,30.518 26.028,30.355C26.028,29.88 25.257,29.287 24.114,28.886L23.046,28.515L21.903,29.034C20.849,29.509 19.721,29.851 18.505,30.073L18.015,30.147L18.015,27.981L20.508,27.58C21.873,27.372 23.224,27.194 23.52,27.194C23.802,27.194 24.173,27.09 24.337,26.972C24.604,26.779 24.604,26.749 24.366,26.319C24.129,25.888 24.129,25.829 24.574,24.523C24.812,23.781 25.242,22.831 25.524,22.416C26.103,21.555 26.147,21.288 25.732,20.768C25.42,20.383 23.728,19.626 23.149,19.626C22.957,19.626 22.437,19.789 21.992,19.982C21.116,20.368 20.374,20.59 19.306,20.798L18.623,20.917L19.41,19.937C19.855,19.403 20.612,18.394 21.102,17.697C21.591,16.999 22.229,16.198 22.526,15.931C22.823,15.649 23.06,15.263 23.06,15.085C23.06,14.654 22.393,14.001 21.502,13.601C20.434,13.126 19.885,13.037 19.618,13.304ZM22.274,22.623C22.229,22.891 22.14,23.484 22.096,23.944C22.036,24.404 21.947,24.849 21.888,24.953C21.769,25.131 19.84,25.695 18.549,25.918L17.97,26.022L18.074,25.324C18.119,24.939 18.163,24.211 18.163,23.692C18.163,22.831 18.193,22.742 18.505,22.683C20.256,22.327 21.161,22.178 21.71,22.163L22.348,22.149L22.274,22.623ZM22.259,32.344C22.081,34.718 22.185,34.54 20.864,34.807C19.618,35.074 17.822,35.371 17.792,35.312C17.777,35.297 17.807,34.51 17.837,33.561L17.896,31.839L18.668,31.735C19.083,31.691 19.929,31.513 20.538,31.364C22.437,30.875 22.363,30.83 22.259,32.344Z" style="fill:rgb(255,0,0);fill-rule:nonzero;"/>
        <path d="M31.371,12.577C31.163,12.829 31.208,13.111 31.682,14.729C31.95,15.664 32.009,16.346 32.068,19.047L32.142,22.267L30.866,22.445C29.412,22.653 29.234,22.653 28.151,22.505C27.23,22.386 26.919,22.564 26.919,23.217C26.919,23.455 27.023,23.885 27.141,24.197C27.72,25.547 27.527,28.188 26.741,29.969C26.399,30.756 26.444,31.409 26.948,32.566C27.334,33.486 27.869,33.932 28.284,33.709C29.056,33.293 29.679,30.756 29.827,27.432C29.946,24.389 29.872,24.597 31.044,24.345L32.039,24.137L32.113,33.783C32.172,42.331 32.217,43.503 32.424,43.978C32.573,44.275 32.751,44.572 32.84,44.616C33.181,44.824 33.612,44.512 33.983,43.8C34.754,42.257 35.066,38.072 35.081,29.242L35.081,23.662L36.654,23.558C37.678,23.484 38.271,23.499 38.375,23.603C38.598,23.826 38.464,30.578 38.227,30.993C38.078,31.29 38.004,31.305 37.351,31.156C35.378,30.741 35.051,31.097 36.313,32.284C36.758,32.715 37.381,33.382 37.678,33.798C38.242,34.555 38.687,34.896 39.088,34.911C39.444,34.911 40.394,34.065 40.779,33.382C41.314,32.448 41.462,31.468 41.551,28.174C41.625,25.844 41.714,25.013 41.922,24.345C42.085,23.87 42.204,23.365 42.204,23.217C42.204,22.638 40.008,20.961 39.251,20.961C39.117,20.961 38.271,21.125 37.381,21.332C36.476,21.54 35.6,21.703 35.422,21.703L35.081,21.703L35.096,18.988C35.096,17.504 35.155,15.945 35.229,15.545C35.6,13.541 35.6,13.467 35.14,13.141C34.176,12.443 31.771,12.087 31.371,12.577Z" style="fill:rgb(255,0,0);fill-rule:nonzero;"/>
    </g>
</svg>
