<?xml version="1.0" encoding="UTF-8" standalone="no"?><!DOCTYPE svg PUBLIC "-//W3C//DTD SVG 1.1//EN" "http://www.w3.org/Graphics/SVG/1.1/DTD/svg11.dtd"><svg width="100%" height="100%" viewBox="0 0 57 57" version="1.1" xmlns="http://www.w3.org/2000/svg" xmlns:xlink="http://www.w3.org/1999/xlink" xml:space="preserve" xmlns:serif="http://www.serif.com/" style="fill-rule:evenodd;clip-rule:evenodd;"><ellipse id="cir_1" cx="28.985" cy="29.244" rx="24.985" ry="25.244" style="fill:#404040;"/><circle id="cir_11" serif:id="cir_1" cx="28.5" cy="28.5" r="24.5" style="fill:#ccc;"/><circle id="cir_2" cx="28.5" cy="28.5" r="22.05" style="fill:#ccc;stroke:#a82424;stroke-width:2px;"/><g><path d="M19.618,13.304c-0.119,0.119 -0.268,0.594 -0.327,1.054c-0.104,0.905 -0.786,2.849 -1.647,4.719l-0.534,1.157l-0.861,-0.104c-0.965,-0.104 -1.499,0.075 -1.499,0.52c0,0.163 0.178,0.638 0.416,1.068l0.4,0.787l-0.015,4.392c-0.014,3.458 -0.074,4.734 -0.296,6.085c-0.401,2.493 -0.371,3.754 0.089,4.66c0.4,0.786 0.92,1.276 1.35,1.276c0.356,0 0.876,-0.816 0.876,-1.38c0,-0.371 0.044,-0.401 0.564,-0.401c0.296,0 1.647,-0.134 2.997,-0.297c1.351,-0.163 2.746,-0.311 3.117,-0.326c0.578,-0.045 0.667,-0.089 0.712,-0.386c0.03,-0.208 -0.074,-0.49 -0.267,-0.698l-0.312,-0.341l0.46,-1.588c0.252,-0.875 0.623,-1.87 0.816,-2.226c0.208,-0.341 0.371,-0.757 0.371,-0.92c0,-0.475 -0.771,-1.068 -1.914,-1.469l-1.068,-0.371l-1.143,0.519c-1.054,0.475 -2.182,0.817 -3.398,1.039l-0.49,0.074l0,-2.166l2.493,-0.401c1.365,-0.208 2.716,-0.386 3.012,-0.386c0.282,0 0.653,-0.104 0.817,-0.222c0.267,-0.193 0.267,-0.223 0.029,-0.653c-0.237,-0.431 -0.237,-0.49 0.208,-1.796c0.238,-0.742 0.668,-1.692 0.95,-2.107c0.579,-0.861 0.623,-1.128 0.208,-1.648c-0.312,-0.385 -2.004,-1.142 -2.583,-1.142c-0.192,0 -0.712,0.163 -1.157,0.356c-0.876,0.386 -1.618,0.608 -2.686,0.816l-0.683,0.119l0.787,-0.98c0.445,-0.534 1.202,-1.543 1.692,-2.24c0.489,-0.698 1.127,-1.499 1.424,-1.766c0.297,-0.282 0.534,-0.668 0.534,-0.846c0,-0.431 -0.667,-1.084 -1.558,-1.484c-1.068,-0.475 -1.617,-0.564 -1.884,-0.297Zm2.656,9.319c-0.045,0.268 -0.134,0.861 -0.178,1.321c-0.06,0.46 -0.149,0.905 -0.208,1.009c-0.119,0.178 -2.048,0.742 -3.339,0.965l-0.579,0.104l0.104,-0.698c0.045,-0.385 0.089,-1.113 0.089,-1.632c0,-0.861 0.03,-0.95 0.342,-1.009c1.751,-0.356 2.656,-0.505 3.205,-0.52l0.638,-0.014l-0.074,0.474Zm-0.015,9.721c-0.178,2.374 -0.074,2.196 -1.395,2.463c-1.246,0.267 -3.042,0.564 -3.072,0.505c-0.015,-0.015 0.015,-0.802 0.045,-1.751l0.059,-1.722l0.772,-0.104c0.415,-0.044 1.261,-0.222 1.87,-0.371c1.899,-0.489 1.825,-0.534 1.721,0.98Z" style="fill:#a92323;fill-rule:nonzero;"/><path d="M31.371,12.577c-0.208,0.252 -0.163,0.534 0.311,2.152c0.268,0.935 0.327,1.617 0.386,4.318l0.074,3.22l-1.276,0.178c-1.454,0.208 -1.632,0.208 -2.715,0.06c-0.921,-0.119 -1.232,0.059 -1.232,0.712c0,0.238 0.104,0.668 0.222,0.98c0.579,1.35 0.386,3.991 -0.4,5.772c-0.342,0.787 -0.297,1.44 0.207,2.597c0.386,0.92 0.921,1.366 1.336,1.143c0.772,-0.416 1.395,-2.953 1.543,-6.277c0.119,-3.043 0.045,-2.835 1.217,-3.087l0.995,-0.208l0.074,9.646c0.059,8.548 0.104,9.72 0.311,10.195c0.149,0.297 0.327,0.594 0.416,0.638c0.341,0.208 0.772,-0.104 1.143,-0.816c0.771,-1.543 1.083,-5.728 1.098,-14.558l0,-5.58l1.573,-0.104c1.024,-0.074 1.617,-0.059 1.721,0.045c0.223,0.223 0.089,6.975 -0.148,7.39c-0.149,0.297 -0.223,0.312 -0.876,0.163c-1.973,-0.415 -2.3,-0.059 -1.038,1.128c0.445,0.431 1.068,1.098 1.365,1.514c0.564,0.757 1.009,1.098 1.41,1.113c0.356,0 1.306,-0.846 1.691,-1.529c0.535,-0.934 0.683,-1.914 0.772,-5.208c0.074,-2.33 0.163,-3.161 0.371,-3.829c0.163,-0.475 0.282,-0.98 0.282,-1.128c0,-0.579 -2.196,-2.256 -2.953,-2.256c-0.134,0 -0.98,0.164 -1.87,0.371c-0.905,0.208 -1.781,0.371 -1.959,0.371l-0.341,0l0.015,-2.715c0,-1.484 0.059,-3.043 0.133,-3.443c0.371,-2.004 0.371,-2.078 -0.089,-2.404c-0.964,-0.698 -3.369,-1.054 -3.769,-0.564Z" style="fill:#a92323;fill-rule:nonzero;"/></g></svg>