<?xml version="1.0" encoding="UTF-8" standalone="no"?><!DOCTYPE svg PUBLIC "-//W3C//DTD SVG 1.1//EN" "http://www.w3.org/Graphics/SVG/1.1/DTD/svg11.dtd"><svg width="100%" height="100%" viewBox="0 0 57 57" version="1.1" xmlns="http://www.w3.org/2000/svg" xmlns:xlink="http://www.w3.org/1999/xlink" xml:space="preserve" xmlns:serif="http://www.serif.com/" style="fill-rule:evenodd;clip-rule:evenodd;"><ellipse id="cir_1" cx="28.985" cy="29.244" rx="24.985" ry="25.244" style="fill:#666;"/><circle id="cir_11" serif:id="cir_1" cx="28.5" cy="28.5" r="24.5" style="fill:#fafafa;"/><circle id="cir_2" cx="28.5" cy="28.5" r="22.05" style="fill:#fafafa;stroke:#c00;stroke-width:2px;"/><path d="M29.81,12.734c-0.267,0.267 -0.237,0.594 0.119,1.647c0.163,0.49 0.341,1.455 0.386,2.122c0.074,1.024 0.045,1.232 -0.148,1.306c-0.134,0.045 -0.95,0.178 -1.811,0.267c-1.84,0.223 -2.152,0.371 -1.899,0.92c0.296,0.653 0.994,0.891 2.537,0.906l1.366,0l0,1.009c0,0.861 -0.045,1.009 -0.253,1.009c-0.148,0.015 -0.92,0.104 -1.736,0.208c-1.35,0.178 -1.514,0.178 -2.182,-0.075c-1.053,-0.4 -1.736,-0.371 -1.944,0.09c-0.133,0.311 -0.103,0.445 0.223,0.92c0.519,0.756 0.638,1.306 1.009,4.496c0.371,3.28 0.623,3.933 1.469,3.933c0.416,0 0.549,-0.074 0.713,-0.416c0.148,-0.311 0.296,-0.4 0.667,-0.4c0.268,0 0.831,-0.045 1.262,-0.09l0.772,-0.103l0,2.077l-2.33,0.312c-1.291,0.178 -2.85,0.326 -3.458,0.341c-1.543,0 -2.538,0.193 -2.775,0.52c-0.163,0.222 -0.193,-0.149 -0.193,-2.405c0.015,-2.418 0.089,-3.487 0.371,-5.401c0.104,-0.638 0.059,-0.742 -0.579,-1.677c-0.371,-0.549 -0.682,-1.024 -0.682,-1.069c0,-0.029 0.356,-0.653 0.786,-1.365c0.43,-0.712 1.172,-2.033 1.647,-2.909c0.475,-0.875 1.024,-1.795 1.217,-2.018c0.549,-0.653 0.46,-1.143 -0.282,-1.87c-1.128,-1.083 -2.597,-1.588 -2.894,-1.009c-0.074,0.149 -0.178,0.713 -0.237,1.247c-0.119,1.231 -0.49,2.389 -1.41,4.333c-1.395,2.998 -3.873,6.663 -6.084,9.052c-1.217,1.306 -1.306,1.677 -0.401,1.648c0.816,-0.03 2.36,-1.128 4.378,-3.132c0.92,-0.92 1.706,-1.676 1.736,-1.676c0.03,0 0.06,1.291 0.06,2.849c0,4.274 -0.312,7.197 -0.95,9.008c-0.342,0.92 -0.297,1.647 0.163,2.79c0.549,1.409 0.861,1.825 1.365,1.825c0.965,0 1.469,-1.484 1.588,-4.734c0.045,-1.276 0.104,-2.478 0.149,-2.671l0.074,-0.356l0.326,0.311c0.416,0.386 1.87,1.054 2.523,1.173c0.297,0.044 1.098,-0.06 1.9,-0.253c1.216,-0.282 3.591,-0.742 3.858,-0.742c0.044,0 0.119,1.885 0.163,4.2c0.074,3.829 0.104,4.274 0.386,4.897c0.475,1.069 1.098,0.846 1.632,-0.564c0.371,-0.979 0.772,-4.882 0.772,-7.509l0,-1.276l1.143,-0.104c0.623,-0.044 2.938,-0.089 5.149,-0.104c4.23,0 5.001,-0.104 5.105,-0.638c0.089,-0.415 -0.237,-0.92 -0.846,-1.321c-0.786,-0.519 -2.478,-1.038 -3.027,-0.949c-0.267,0.044 -1.039,0.193 -1.736,0.326c-1.247,0.223 -4.808,0.668 -5.447,0.668c-0.326,0 -0.341,-0.059 -0.341,-1.024c0,-1.172 -0.074,-1.128 1.529,-1.276c0.964,-0.089 1.024,-0.074 1.306,0.282c0.371,0.475 0.831,0.489 1.484,0.044c0.608,-0.4 0.845,-0.964 1.988,-4.704c0.475,-1.514 0.905,-2.805 0.98,-2.894c0.074,-0.074 0.133,-0.312 0.133,-0.534c0,-0.475 -0.326,-0.742 -1.736,-1.454c-0.965,-0.475 -1.499,-0.564 -2.211,-0.312c-0.238,0.074 -1.113,0.312 -1.944,0.504l-1.529,0.357l0,-0.95c0,-0.861 0.03,-0.95 0.312,-0.95c0.519,0 3.235,-0.593 3.858,-0.831c0.49,-0.208 0.579,-0.312 0.579,-0.668c0,-0.371 -0.119,-0.475 -0.772,-0.816c-0.935,-0.475 -1.647,-0.504 -2.894,-0.133c-0.504,0.163 -0.949,0.252 -0.994,0.222c-0.03,-0.044 0,-0.608 0.089,-1.261c0.089,-0.653 0.163,-1.484 0.178,-1.855c0.015,-0.653 0,-0.668 -0.712,-1.024c-0.861,-0.431 -2.716,-0.609 -3.013,-0.297Zm6.901,10.225c0.03,0.282 0.015,0.786 -0.044,1.128l-0.09,0.608l-0.845,-0.193c-0.624,-0.148 -1.054,-0.163 -1.648,-0.059c-0.445,0.089 -0.831,0.148 -0.86,0.148c-0.03,0 -0.045,-0.401 -0.045,-0.875l0,-0.876l1.083,-0.178c0.579,-0.089 1.173,-0.193 1.292,-0.223c0.118,-0.029 0.43,-0.029 0.667,-0.029c0.401,0.029 0.446,0.089 0.49,0.549Zm-6.381,1.291l-0.045,0.861l-0.667,0.089c-0.371,0.044 -0.98,0.133 -1.366,0.178l-0.712,0.104l0,-1.47l0.786,-0.222c1.024,-0.282 1.306,-0.342 1.707,-0.371c0.327,-0.015 0.341,0.029 0.297,0.831Zm5.906,2.716c-0.148,1.157 -0.089,1.113 -1.647,1.127l-1.41,0.015l0,-0.712c0,-0.801 -0.119,-0.757 2.004,-1.009c0.578,-0.074 1.068,-0.134 1.098,-0.149c0.029,0 0.015,0.327 -0.045,0.728Zm-5.876,0.934l0,0.817l-1.203,0.104c-0.652,0.059 -1.216,0.089 -1.231,0.059c-0.03,-0.03 -0.089,-0.43 -0.149,-0.876l-0.104,-0.816l1.351,-0.044l1.336,-0.045l0,0.801Z" style="fill:#c00;fill-rule:nonzero;"/></svg>